<svg xmlns="http://www.w3.org/2000/svg" xmlns:xlink="http://www.w3.org/1999/xlink" version="1.1" x="0px" y="0px" viewBox="0 0 600 600" style="enable-background:new 0 0 600 600;" xml:space="preserve"><g><path d="M504.9,430.32H383.77c-23.54,0-42.7-19.16-42.7-42.7V217.47c0-1.93,1.57-3.5,3.5-3.5s3.5,1.57,3.5,3.5v170.15   c0,19.69,16.02,35.7,35.7,35.7H504.9c19.69,0,35.7-16.01,35.7-35.7V129.85c0-19.68-16.02-35.7-35.7-35.7H383.77   c-19.69,0-35.7,16.01-35.7,35.7v26.91c0,1.93-1.57,3.5-3.5,3.5s-3.5-1.57-3.5-3.5v-26.91c0-23.54,19.16-42.7,42.7-42.7H504.9   c23.54,0,42.7,19.16,42.7,42.7v257.77C547.6,411.17,528.44,430.32,504.9,430.32z"></path></g><g><path d="M544.1,133.34H344.57c-1.93,0-3.5-1.57-3.5-3.5s1.57-3.5,3.5-3.5H544.1c1.93,0,3.5,1.57,3.5,3.5   S546.03,133.34,544.1,133.34z"></path></g><g><path d="M544.1,384.25H344.56c-1.93,0-3.5-1.57-3.5-3.5s1.57-3.5,3.5-3.5H544.1c1.93,0,3.5,1.57,3.5,3.5   S546.04,384.25,544.1,384.25z"></path></g><g><path d="M472.53,111.81h-56.39c-1.93,0-3.5-1.57-3.5-3.5s1.57-3.5,3.5-3.5h56.39c1.93,0,3.5,1.57,3.5,3.5   S474.46,111.81,472.53,111.81z"></path></g><g><path d="M189.2,525.6h-67.26c-5.97,0-11.09-4.46-11.9-10.37l-8.13-58.92c-9.87-13.8-15.08-30.08-15.08-47.13   c0-44.74,36.4-81.14,81.15-81.14c44.48,0,80.71,35.96,81.15,80.34l22,45.65c0.55,1.14,0.44,2.49-0.29,3.53   c-0.73,1.04-1.96,1.6-3.22,1.47l-18.79-1.94l-1.95,23.66c-0.54,6.57-3.67,12.48-8.8,16.62c-5.13,4.14-11.56,5.96-18.1,5.1   l-18.75-2.45v13.58C201.22,520.21,195.83,525.6,189.2,525.6z M167.98,335.04c-40.89,0-74.15,33.26-74.15,74.14   c0,15.85,4.93,30.97,14.25,43.72c0.34,0.47,0.56,1.01,0.64,1.59l8.25,59.78c0.34,2.47,2.48,4.33,4.97,4.33h67.26   c2.77,0,5.02-2.25,5.02-5.02v-17.56c0-1.01,0.43-1.97,1.19-2.63c0.76-0.66,1.76-0.97,2.76-0.84l22.71,2.97   c4.63,0.6,9.17-0.68,12.8-3.61c3.63-2.93,5.84-7.1,6.22-11.75l2.24-27.22c0.08-0.94,0.53-1.81,1.25-2.41   c0.72-0.6,1.66-0.89,2.6-0.79l16.11,1.67l-19.62-40.71c-0.23-0.47-0.35-0.99-0.35-1.52C242.13,368.3,208.86,335.04,167.98,335.04z"></path></g><g><path d="M134.87,403.06c-8.48,0-15.37-6.9-15.37-15.37s6.9-15.37,15.37-15.37s15.37,6.9,15.37,15.37S143.34,403.06,134.87,403.06z    M134.87,379.32c-4.62,0-8.37,3.76-8.37,8.37s3.76,8.37,8.37,8.37s8.37-3.76,8.37-8.37S139.48,379.32,134.87,379.32z"></path></g><g><path d="M167.28,374.25c-8.48,0-15.37-6.9-15.37-15.37c0-8.48,6.9-15.37,15.37-15.37s15.37,6.9,15.37,15.37   C182.65,367.35,175.75,374.25,167.28,374.25z M167.28,350.5c-4.62,0-8.37,3.75-8.37,8.37s3.76,8.37,8.37,8.37s8.37-3.76,8.37-8.37   S171.89,350.5,167.28,350.5z"></path></g><g><path d="M199.96,397.99c-8.48,0-15.37-6.9-15.37-15.37s6.9-15.37,15.37-15.37s15.37,6.9,15.37,15.37S208.43,397.99,199.96,397.99z    M199.96,374.25c-4.62,0-8.37,3.76-8.37,8.37s3.76,8.37,8.37,8.37s8.37-3.76,8.37-8.37S204.57,374.25,199.96,374.25z"></path></g><g><path d="M126.91,236.57h-32c-1.22,0-2.35-0.63-2.99-1.67c-0.64-1.04-0.68-2.34-0.13-3.42l16-31.2c0.6-1.17,1.8-1.9,3.11-1.9   s2.52,0.73,3.11,1.9l16,31.2c0.56,1.08,0.51,2.38-0.13,3.42C129.26,235.93,128.12,236.57,126.91,236.57z M100.63,229.57h20.54   l-10.27-20.03L100.63,229.57z"></path></g><g><path d="M255.07,236.57h-32c-1.22,0-2.35-0.63-2.99-1.67c-0.64-1.04-0.68-2.34-0.13-3.42l16-31.2c0.6-1.17,1.8-1.9,3.11-1.9   s2.52,0.73,3.11,1.9l16,31.2c0.56,1.08,0.51,2.38-0.13,3.42C257.42,235.93,256.29,236.57,255.07,236.57z M228.79,229.57h20.54   l-10.27-20.03L228.79,229.57z"></path></g><g><path d="M391.14,236.57h-32c-1.22,0-2.35-0.63-2.99-1.67c-0.64-1.04-0.68-2.34-0.13-3.42l16-31.2c0.6-1.17,1.8-1.9,3.11-1.9   s2.52,0.73,3.11,1.9l16,31.2c0.56,1.08,0.51,2.38-0.13,3.42C393.49,235.93,392.36,236.57,391.14,236.57z M364.87,229.57h20.54   l-10.27-20.03L364.87,229.57z"></path></g><g><path d="M150.1,220.97h-31.19c-1.93,0-3.5-1.57-3.5-3.5s1.57-3.5,3.5-3.5h29.96l33.6-26.85l-33.6-26.86H56.78l30.18,24.13   c0.83,0.66,1.31,1.67,1.31,2.73c0,1.06-0.48,2.07-1.31,2.73l-30.18,24.12h46.12c1.93,0,3.5,1.57,3.5,3.5s-1.57,3.5-3.5,3.5H46.8   c-1.49,0-2.81-0.94-3.3-2.34c-0.49-1.4-0.04-2.96,1.12-3.89l34.56-27.62l-34.56-27.63c-1.16-0.93-1.61-2.49-1.12-3.89   c0.49-1.4,1.82-2.34,3.3-2.34h103.3c0.79,0,1.56,0.27,2.19,0.77l37.98,30.36c0.83,0.66,1.31,1.67,1.31,2.73   c0,1.06-0.48,2.07-1.31,2.73l-37.98,30.35C151.66,220.7,150.89,220.97,150.1,220.97z"></path></g><g><path d="M282.45,220.97h-35.38c-1.93,0-3.5-1.57-3.5-3.5s1.57-3.5,3.5-3.5h34.15l33.61-26.85l-33.61-26.86h-92.09l30.18,24.13   c0.83,0.66,1.31,1.67,1.31,2.73c0,1.06-0.48,2.07-1.31,2.73l-30.18,24.12h41.93c1.93,0,3.5,1.57,3.5,3.5s-1.57,3.5-3.5,3.5h-51.92   c-1.49,0-2.81-0.94-3.3-2.34c-0.49-1.4-0.04-2.96,1.12-3.89l34.56-27.62l-34.56-27.63c-1.16-0.93-1.61-2.49-1.12-3.89   c0.49-1.4,1.82-2.34,3.3-2.34h103.3c0.79,0,1.56,0.27,2.19,0.77l37.99,30.36c0.83,0.66,1.31,1.67,1.31,2.73   c0,1.06-0.48,2.07-1.32,2.73l-37.99,30.35C284.01,220.7,283.24,220.97,282.45,220.97z"></path></g><g><path d="M414.81,220.97h-31.67c-1.93,0-3.5-1.57-3.5-3.5s1.57-3.5,3.5-3.5h30.44l33.6-26.85l-33.6-26.86h-92.1l30.19,24.13   c0.83,0.66,1.31,1.67,1.31,2.73c0,1.06-0.48,2.07-1.32,2.73l-30.19,24.12h45.65c1.93,0,3.5,1.57,3.5,3.5s-1.57,3.5-3.5,3.5H311.5   c-1.49,0-2.81-0.94-3.3-2.34s-0.04-2.96,1.12-3.89l34.57-27.62l-34.57-27.63c-1.16-0.93-1.61-2.49-1.12-3.89   c0.49-1.4,1.82-2.34,3.3-2.34h103.31c0.79,0,1.56,0.27,2.19,0.77l37.98,30.36c0.83,0.66,1.31,1.67,1.31,2.73   c0,1.06-0.48,2.07-1.31,2.73L417,220.2C416.37,220.7,415.6,220.97,414.81,220.97z"></path></g><g><path d="M134.87,379.32c-1.93,0-3.5-1.57-3.5-3.5V320.5h-20.46c-1.93,0-3.5-1.57-3.5-3.5v-83.93c0-1.93,1.57-3.5,3.5-3.5   s3.5,1.57,3.5,3.5v80.43h20.46c1.93,0,3.5,1.57,3.5,3.5v58.82C138.37,377.75,136.8,379.32,134.87,379.32z"></path></g><g><path d="M167.28,350.5c-1.93,0-3.5-1.57-3.5-3.5v-71.3c0-1.93,1.57-3.5,3.5-3.5h68.29v-39.14c0-1.93,1.57-3.5,3.5-3.5   s3.5,1.57,3.5,3.5v42.64c0,1.93-1.57,3.5-3.5,3.5h-68.29V347C170.78,348.94,169.21,350.5,167.28,350.5z"></path></g><g><path d="M285.94,386.12h-74.11c-1.93,0-3.5-1.57-3.5-3.5s1.57-3.5,3.5-3.5h70.61v-74.68c0-1.93,1.57-3.5,3.5-3.5h85.7v-67.88   c0-1.93,1.57-3.5,3.5-3.5s3.5,1.57,3.5,3.5v71.38c0,1.93-1.57,3.5-3.5,3.5h-85.7v74.68C289.44,384.55,287.87,386.12,285.94,386.12z   "></path></g></svg>