<svg xmlns="http://www.w3.org/2000/svg" viewBox="0 0 32 32" x="0px" y="0px"><path d="M28,4.50012H4a1.50164,1.50164,0,0,0-1.5,1.5v20a1.50164,1.50164,0,0,0,1.5,1.5H28a1.50164,1.50164,0,0,0,1.5-1.5v-20A1.50164,1.50164,0,0,0,28,4.50012Zm-24,1H28a.50065.50065,0,0,1,.5.5V9.632H3.5V6.00012A.50065.50065,0,0,1,4,5.50012Zm24,21H4a.50065.50065,0,0,1-.5-.5V10.632h25V26.00012A.50065.50065,0,0,1,28,26.50012Z"></path><path d="M6.03174,9.089a1.5,1.5,0,1,0-1.5-1.5A1.50164,1.50164,0,0,0,6.03174,9.089Zm0-2a.5.5,0,1,1-.5.5A.50065.50065,0,0,1,6.03174,7.089Z"></path><path d="M9.25684,9.089a1.5,1.5,0,1,0-1.5-1.5A1.50164,1.50164,0,0,0,9.25684,9.089Zm0-2a.5.5,0,1,1-.5.5A.50066.50066,0,0,1,9.25684,7.089Z"></path><path d="M12.48193,9.089a1.5,1.5,0,1,0-1.5-1.5A1.50164,1.50164,0,0,0,12.48193,9.089Zm0-2a.5.5,0,1,1-.5.5A.50065.50065,0,0,1,12.48193,7.089Z"></path><path d="M19.45654,15.41516a.49995.49995,0,0,0-.707.707l2.894,2.89453-2.894,2.89356a.49995.49995,0,1,0,.707.707l3.24756-3.24707a.4998.4998,0,0,0,0-.707Z"></path><path d="M13.10449,15.41516a.49982.49982,0,0,0-.707,0l-3.24756,3.248a.49983.49983,0,0,0,0,.707l3.24756,3.24707a.49995.49995,0,1,0,.707-.707l-2.894-2.89356,2.894-2.89453A.49982.49982,0,0,0,13.10449,15.41516Z"></path><path d="M18.0542,13.47766a.50066.50066,0,0,0-.64063.29883L13.87305,23.504a.49985.49985,0,1,0,.93945.34179L18.353,14.11829A.4993.4993,0,0,0,18.0542,13.47766Z"></path></svg>