<svg xmlns="http://www.w3.org/2000/svg" viewBox="0 0 90 90" x="0px" y="0px"><defs><style>.a{fill:none;}</style></defs><title>Artboard 57</title><path class="a" d="M45,65.15332A20.152,20.152,0,0,1,28.84668,57.038V69.39844a.16755.16755,0,0,0,.167.167H60.98633a.16755.16755,0,0,0,.167-.167V57.0376A20.15955,20.15955,0,0,1,45,65.15332ZM29.85754,62.37195a.30382.30382,0,0,1-.22693.09564.30057.30057,0,0,1-.20587-.085l-.08148-.0733a.30608.30608,0,0,1,.40332-.46051l.10034.09039A.30541.30541,0,0,1,29.85754,62.37195Zm1.55371,1.26141a.304.304,0,0,1-.227.09564.30068.30068,0,0,1-.20587-.085l-.08142-.07324a.3061.3061,0,1,1,.40332-.46057l.10034.09039A.30546.30546,0,0,1,31.41125,63.63336ZM33.029,64.6778a.30551.30551,0,0,1-.26733.14764.30061.30061,0,0,1-.15387-.04456l-.11029-.069a.30728.30728,0,0,1,.3324-.51691l.096.06158A.30712.30712,0,0,1,33.029,64.6778Zm1.71069.95789a.30507.30507,0,0,1-.27478.16193.2933.2933,0,0,1-.13959-.03717l-.10455-.0545a.30614.30614,0,0,1-.1308-.41327.3096.3096,0,0,1,.41333-.1308l.11163.05939A.30492.30492,0,0,1,34.73969,65.63568Zm1.50531.98553a.31942.31942,0,0,1-.10986-.02222l-.1178-.04993a.30642.30642,0,1,1,.23969-.564l.10828.045a.3068.3068,0,0,1-.1203.59119Zm1.84509.66534a.28031.28031,0,0,1-.08246-.01337l-.1228-.038a.30667.30667,0,1,1,.18732-.584l.11084.0354a.30651.30651,0,0,1-.0929.6Zm1.89575.50562a.372.372,0,0,1-.06219-.007l-.12061-.02844a.30544.30544,0,0,1-.2298-.367.29917.29917,0,0,1,.367-.22986l.11823.026a.3069.3069,0,0,1-.07263.60632Zm1.93207.3421c-.012-.00024-.02393-.00165-.03589-.00305l-.12195-.01642a.30648.30648,0,1,1,.08221-.60742l.12195.01642a.30665.30665,0,0,1-.04633.61047Zm1.95288.17822-.018-.00031-.11371-.00677a.30684.30684,0,0,1,.02-.61328l.00958.00018.13049.007a.307.307,0,0,1-.02838.61316Zm1.97241.012-.11389.004-.018-.00031a.307.307,0,0,1-.00751-.61371l.13068-.00378.00958.00012a.30686.30686,0,0,1-.00085.61365Zm2.00262-.1626-.1275.02539a.29132.29132,0,0,1-.0636.0061.30651.30651,0,0,1-.05316-.6073l.113-.02325a.30063.30063,0,0,1,.36511.23389A.3061.3061,0,0,1,47.84583,68.16187Zm1.94965-.31555-.1275.02539a.29528.29528,0,0,1-.0636.00616.30655.30655,0,0,1-.05316-.60736l.113-.02325a.30067.30067,0,0,1,.36511.23395A.306.306,0,0,1,49.79547,67.84631Zm1.93066-.49207-.12885.03857a.33207.33207,0,0,1-.08893.01166.30672.30672,0,0,1-.07843-.60175l.10718-.03174a.30656.30656,0,1,1,.189.58325Zm1.87592-.65125-.11829.046a.29969.29969,0,0,1-.11536.02081.30665.30665,0,0,1-.105-.59265l.111-.04364a.30667.30667,0,1,1,.22766.56952Zm1.8078-.80939-.10028.04987a.30664.30664,0,0,1-.27838-.54645L55.152,65.338a.30628.30628,0,0,1,.25781.55566Zm1.75189-.97089-.11145.06879a.30726.30726,0,0,1-.31458-.52789l.09924-.05939a.30644.30644,0,1,1,.32678.51849ZM58.802,63.82166l-.08984.06555a.30865.30865,0,0,1-.18921.06152.30674.30674,0,0,1-.17877-.55194l.10925-.07965a.30661.30661,0,0,1,.34857.50452ZM59.86035,62.193l.10217-.0882a.30608.30608,0,0,1,.38739.474l-.0827.07172a.3007.3007,0,0,1-.20862.07794.30671.30671,0,0,1-.19824-.53546Z"></path><path class="a" d="M45,39.583A5.417,5.417,0,1,0,50.417,45,5.42266,5.42266,0,0,0,45,39.583Zm-3.34668,4.3457a.24957.24957,0,1,1,.47656.14844l-.02832.09375a.24927.24927,0,0,1-.23926.17773.23592.23592,0,0,1-.07227-.01074.24948.24948,0,0,1-.167-.31152ZM41.48633,45a.25.25,0,0,1,.5,0l.002.09082-.5.0166Zm.751,1.75781a.24956.24956,0,0,1-.33789-.10352l-.0498-.09668a.24982.24982,0,1,1,.44922-.21875l.042.08105A.25036.25036,0,0,1,42.2373,46.75781Zm.18262-3.77441a.24892.24892,0,0,1-.01465-.35254l.0752-.08008a.25.25,0,0,1,.35352.35352l-.06152.06445a.24763.24763,0,0,1-.18359.08105A.24509.24509,0,0,1,42.41992,42.9834Zm.88281,4.81543a.24829.24829,0,0,1-.20312.10449.2438.2438,0,0,1-.14551-.04687l-.08789-.06543a.24984.24984,0,1,1,.30664-.39453l.07227.05371A.25.25,0,0,1,43.30273,47.79883Zm.59863-5.60645a.25308.25308,0,0,1-.08789.01563.25012.25012,0,0,1-.08789-.48437l.10059-.03613a.24984.24984,0,0,1,.16211.47266Zm.57324,6.2793a.21976.21976,0,0,1-.043-.00391l-.10059-.01758a.25047.25047,0,0,1-.20117-.291.24308.24308,0,0,1,.291-.20117l.09668.01758a.24992.24992,0,0,1-.043.49609Zm.91016-6.46289-.0293-.002-.084-.00781.03711-.499.10547.01074a.24989.24989,0,0,1-.0293.498Zm.64648,6.35059-.10449.03027a.24993.24993,0,0,1-.13086-.48242l.08691-.02441a.24957.24957,0,1,1,.14844.47656Zm.61426-5.88477-.08008-.0498a.25041.25041,0,1,1,.26367-.42578l.08984.05762a.24994.24994,0,0,1-.13672.459A.25123.25123,0,0,1,46.64551,42.47461Zm.76465,5.082-.07715.07129a.25043.25043,0,0,1-.332-.375l.07129-.06348a.2495.2495,0,1,1,.33789.36719Zm.13574-4.16992a.25041.25041,0,1,1,.42578-.26367l.05469.09082a.25034.25034,0,0,1-.08984.3418.24461.24461,0,0,1-.126.03418.24894.24894,0,0,1-.21582-.124Zm.71094,2.93359a.24886.24886,0,0,1-.23145.15625.24313.24313,0,0,1-.09375-.01855.2496.2496,0,0,1-.1377-.3252l.0332-.08789a.24893.24893,0,0,1,.32227-.14648.25164.25164,0,0,1,.14648.32227Zm.01953-1.31348-.02148.001a.24971.24971,0,0,1-.249-.22852l-.00879-.0918a.24977.24977,0,0,1,.49609-.05859l.01074.10742A.25033.25033,0,0,1,48.27637,45.00684Z"></path><path class="a" d="M45,25.34668A19.66619,19.66619,0,0,0,28.84668,33.8064v22.384a19.64962,19.64962,0,0,0,32.30664.00323V33.804l-.15137-.21613A19.70669,19.70669,0,0,0,45,25.34668ZM45,50.917A5.917,5.917,0,1,1,50.917,45,5.92362,5.92362,0,0,1,45,50.917Z"></path><circle class="a" cx="45.18945" cy="75.31836" r="3.41797"></circle><path class="a" d="M60.98633,20.43457H29.01367a.16755.16755,0,0,0-.167.167V32.9624a20.13425,20.13425,0,0,1,32.30664-.0011V20.60156A.16755.16755,0,0,0,60.98633,20.43457ZM29.94745,27.973l-.09613.08588a.30731.30731,0,0,1-.39954-.467l.08881-.07635a.30613.30613,0,0,1,.40686.45752ZM31.4519,26.7522l-.09833.07385a.30877.30877,0,0,1-.18921.06152.30674.30674,0,0,1-.17877-.55194l.09833-.07385a.30656.30656,0,1,1,.368.49042ZM32.972,25.66156l-.09833.07379a.30877.30877,0,0,1-.18921.06152.30674.30674,0,0,1-.17877-.55194l.09833-.07385a.30659.30659,0,0,1,.368.49048Zm1.77191-.94586-.11359.05676a.29245.29245,0,0,1-.14075.03241.30657.30657,0,0,1-.13037-.58112l.10638-.0545a.30662.30662,0,1,1,.27832.54645Zm1.75854-.79944-.10376.04138a.2943.2943,0,0,1-.12628.02539.30659.30659,0,0,1-.11584-.588l.12555-.0506a.30641.30641,0,0,1,.22034.57184Zm1.83392-.64838-.12408.03748a.30116.30116,0,0,1-.09131.01282.30654.30654,0,0,1-.08087-.60059l.11206-.03528a.30693.30693,0,0,1,.1842.58557Zm1.873-.48828-.12988.02777a.37465.37465,0,0,1-.06238.00494.30695.30695,0,0,1-.052-.60852l.11066-.02325a.30689.30689,0,1,1,.13361.59906Zm1.90747-.32471-.12012.01593a.30208.30208,0,0,1-.04553.00287A.3067.3067,0,0,1,41.916,21.863l.12256-.01587a.30638.30638,0,1,1,.07831.60773Zm1.92749-.16016-.12238.00513-.01794-.00031a.307.307,0,0,1-.00757-.61377l.12238-.00507a.31692.31692,0,0,1,.31976.29425A.30867.30867,0,0,1,44.04437,22.29474Zm1.94385.00189-.00958-.00018-.12213-.00568a.30681.30681,0,0,1,.02-.61322l.00958.00012.12213.00568a.30684.30684,0,0,1-.02.61328Zm1.95428.165a.35533.35533,0,0,1-.03595-.003l-.11359-.01392a.3071.3071,0,0,1-.27234-.33661.301.301,0,0,1,.33661-.2735l.13159.0166a.30662.30662,0,0,1-.04633.61041Zm1.93463.33252a.29785.29785,0,0,1-.06335-.00824l-.1087-.02344a.30514.30514,0,0,1-.24316-.35889.297.297,0,0,1,.35889-.24316l.13013.02856a.30653.30653,0,0,1-.07379.60516Zm1.89709.49487a.31061.31061,0,0,1-.08008-.01215l-.12756-.03931a.30625.30625,0,1,1,.19208-.5816l.10614.03174a.30675.30675,0,0,1-.09058.60132Zm1.8501.65582a.31082.31082,0,0,1-.10754-.021l-.1214-.05a.30643.30643,0,0,1,.23975-.564l.10712.0426a.30689.30689,0,0,1-.11792.59241Zm2.06354.64514a.30562.30562,0,0,1-.2785.16779.29734.29734,0,0,1-.13367-.03339l-.11169-.05707a.30653.30653,0,1,1,.28253-.54407l.10693.05457A.30581.30581,0,0,1,55.68787,24.59Zm1.69708.98163a.30551.30551,0,0,1-.26733.14764.30061.30061,0,0,1-.15387-.04456l-.10791-.06537a.30743.30743,0,0,1,.32526-.52179l.10077.06281A.30718.30718,0,0,1,57.38495,25.57166Zm1.606,1.12628a.3048.3048,0,0,1-.25134.124.2997.2997,0,0,1-.17755-.06055l-.10181-.076a.30677.30677,0,0,1,.37262-.48743l.09467.07111A.30674.30674,0,0,1,58.99091,26.69794Zm1.50549,1.25641a.30446.30446,0,0,1-.43195.02856l-.098-.08551a.30732.30732,0,1,1,.41522-.45319l.08612.07819A.30478.30478,0,0,1,60.4964,27.95435Z"></path><path class="a" d="M26.92773,44.75V37.26483A19.43874,19.43874,0,0,0,25.3537,44.75Z"></path><path class="a" d="M26.92773,52.73694V45.25h-1.574A19.43614,19.43614,0,0,0,26.92773,52.73694Z"></path><rect class="a" x="36.91406" y="14.72754" width="0.49707" height="0.49707" rx="0.15625" ry="0.15625"></rect><rect class="a" x="41.55371" y="14.72754" width="7.47656" height="0.49707" rx="0.15625" ry="0.15625"></rect><path class="a" d="M63.07227,44.75h1.574a19.439,19.439,0,0,0-1.574-7.484Z"></path><path class="a" d="M63.07227,52.73517A19.43874,19.43874,0,0,0,64.6463,45.25h-1.574Z"></path><path class="a" d="M58.89551,9.69141h-27.791a3.681,3.681,0,0,0-3.67676,3.67676V76.63184a3.681,3.681,0,0,0,3.67676,3.67676h27.791a3.681,3.681,0,0,0,3.67676-3.67676V13.36816A3.681,3.681,0,0,0,58.89551,9.69141Zm-17.8418,5.19238a.65642.65642,0,0,1,.65625-.65625H48.874a.65642.65642,0,0,1,.65625.65625v.18457a.65642.65642,0,0,1-.65625.65625H41.71a.65642.65642,0,0,1-.65625-.65625Zm-4.63965,0a.65642.65642,0,0,1,.65625-.65625h.18457a.65642.65642,0,0,1,.65625.65625v.18457a.65642.65642,0,0,1-.65625.65625h-.18457a.65642.65642,0,0,1-.65625-.65625Zm8.77539,64.35254a3.918,3.918,0,1,1,3.918-3.918A3.92269,3.92269,0,0,1,45.18945,79.23633Zm16.46387-9.83789a.66726.66726,0,0,1-.667.667H29.01367a.66726.66726,0,0,1-.667-.667V56.32361a.22955.22955,0,0,1,0-.19318V20.60156a.66726.66726,0,0,1,.667-.667H60.98633a.66726.66726,0,0,1,.667.667Z"></path><path d="M22.3847,39.20819l-.03076.12054a.30609.30609,0,0,0,.22131.37286.29038.29038,0,0,0,.07056.00958.30671.30671,0,0,0,.30237-.231l.03076-.1181a.30738.30738,0,0,0-.22015-.37408A.311.311,0,0,0,22.3847,39.20819Z"></path><path d="M23.23346,52.66187a.295.295,0,0,0,.072-.00714.30741.30741,0,0,0,.23273-.36639l-.03137-.12756a.30668.30668,0,1,0-.5946.15051l.02686.11072A.308.308,0,0,0,23.23346,52.66187Z"></path><path d="M23.20276,37.82953A.30709.30709,0,0,0,23.5,37.61646l.03656-.10486a.30658.30658,0,0,0-.57654-.20874l-.04407.12628a.30611.30611,0,0,0,.19836.38568A.33061.33061,0,0,0,23.20276,37.82953Z"></path><path d="M24.2016,35.82587l.05109-.11658a.30666.30666,0,0,0-.56146-.24683l-.04858.10706a.30914.30914,0,0,0,.15131.40765.3241.3241,0,0,0,.12292.02722A.30909.30909,0,0,0,24.2016,35.82587Z"></path><path d="M22.63824,50.87109a.29474.29474,0,0,0,.072-.00714.30735.30735,0,0,0,.23273-.36639L22.91162,50.37a.30667.30667,0,0,0-.5946.15045l.02692.11072A.30789.30789,0,0,0,22.63824,50.87109Z"></path><path d="M21.9765,41.15594l-.02.11951a.30683.30683,0,0,0,.25165.353.30106.30106,0,0,0,.04547.00439.30654.30654,0,0,0,.30756-.256l.02008-.12195a.30639.30639,0,0,0-.60474-.09894Z"></path><path d="M65.69373,54.41113l-.0473.10345a.30508.30508,0,0,0,.14642.40753.29471.29471,0,0,0,.12537.02972.30548.30548,0,0,0,.28223-.17621l.05475-.11768a.307.307,0,0,0-.15735-.40417A.30352.30352,0,0,0,65.69373,54.41113Z"></path><path d="M25.55762,57.35883a.30788.30788,0,0,0-.08868.42517l.06891.10419a.30678.30678,0,1,0,.51154-.33881l-.06659-.10181A.3072.3072,0,0,0,25.55762,57.35883Z"></path><path d="M24.57385,55.65948a.30787.30787,0,0,0-.12335.41614l.05695.10522a.30679.30679,0,0,0,.54181-.288L24.99,55.78278A.30919.30919,0,0,0,24.57385,55.65948Z"></path><path d="M21.73322,43.12927l-.00928.12207a.30867.30867,0,0,0,.28326.32959l.01794.00031a.30719.30719,0,0,0,.31165-.28351l.00928-.12207a.30869.30869,0,0,0-.28326-.32965A.31819.31819,0,0,0,21.73322,43.12927Z"></path><path d="M63.79926,57.77649l-.06757.09595a.30786.30786,0,0,0,.07422.42792.30794.30794,0,0,0,.42792-.07422l.07251-.10541a.30484.30484,0,0,0-.08148-.42566A.30823.30823,0,0,0,63.79926,57.77649Z"></path><path d="M23.74115,53.88239a.30514.30514,0,0,0-.16022.40234l.05072.11835a.30715.30715,0,0,0,.275.18085.31448.31448,0,0,0,.1311-.02655.30751.30751,0,0,0,.1543-.40607l-.04852-.1087A.30377.30377,0,0,0,23.74115,53.88239Z"></path><path d="M22.051,46.99847a.307.307,0,0,0,.28357-.32715l-.00867-.12238a.285.285,0,0,0-.32837-.28485.307.307,0,0,0-.28357.32715l.00867.12244a.30644.30644,0,0,0,.30078.28552A.22554.22554,0,0,0,22.051,46.99847Z"></path><path d="M22.2467,48.94812a.30336.30336,0,0,0,.04559-.00287.30674.30674,0,0,0,.26349-.34424l-.01935-.12854a.29855.29855,0,0,0-.3504-.25525.30513.30513,0,0,0-.25525.3504l.01721.11414A.30657.30657,0,0,0,22.2467,48.94812Z"></path><path d="M64.82086,56.12561l-.06427.114a.30662.30662,0,1,0,.53662.29681l.05682-.09973a.30691.30691,0,1,0-.52917-.311Z"></path><path d="M34.46558,24.16925l-.10638.0545a.30657.30657,0,0,0,.13037.58112.29245.29245,0,0,0,.14075-.03241l.11359-.05676a.30662.30662,0,1,0-.27832-.54645Z"></path><path d="M67.6568,40.806a.30743.30743,0,0,0-.25293.35284l.01959.119a.30654.30654,0,0,0,.29761.25909.27223.27223,0,0,0,.0528-.00385.3052.3052,0,0,0,.25525-.3504l-.01947-.12378A.30122.30122,0,0,0,67.6568,40.806Z"></path><path d="M66.031,35.91266a.29693.29693,0,0,0,.1347-.02887.30573.30573,0,0,0,.14832-.40735l-.04736-.10382a.30622.30622,0,1,0-.56256.24207l.05426.11957A.3046.3046,0,0,0,66.031,35.91266Z"></path><path d="M65.1524,34.15637a.312.312,0,0,0,.15161-.03693.30793.30793,0,0,0,.12335-.4162l-.06165-.11127a.30376.30376,0,0,0-.41742-.11737.30717.30717,0,0,0-.11737.41748l.05695.104A.3073.3073,0,0,0,65.1524,34.15637Z"></path><path d="M67.64679,43.08655l.00885.11279a.30639.30639,0,0,0,.30072.28558.225.225,0,0,0,.02759-.00073.3071.3071,0,0,0,.28363-.32715l-.01093-.132a.31.31,0,0,0-.33569-.27417A.30546.30546,0,0,0,67.64679,43.08655Z"></path><path d="M64.12744,32.48029a.2987.2987,0,0,0,.1795-.05444.3067.3067,0,0,0,.078-.42651l-.06433-.09576a.30708.30708,0,0,0-.51385.33636l.07367.108A.30461.30461,0,0,0,64.12744,32.48029Z"></path><path d="M67.21948,38.89307a.3064.3064,0,0,0-.222.37256l.03033.11914a.30667.30667,0,0,0,.5946-.15045l-.03033-.1192A.30977.30977,0,0,0,67.21948,38.89307Z"></path><path d="M40.07581,22.18054l-.11066.02325a.30695.30695,0,0,0,.052.60852.37465.37465,0,0,0,.06238-.00494l.12988-.02777a.30689.30689,0,1,0-.13361-.59906Z"></path><path d="M31.08392,26.26178l-.09833.07385a.30656.30656,0,1,0,.368.49042l.09833-.07385a.30656.30656,0,1,0-.368-.49042Z"></path><path d="M29.54059,27.5155l-.08881.07635a.30731.30731,0,0,0,.39954.467l.09613-.08588a.30613.30613,0,0,0-.40686-.45752Z"></path><path d="M32.604,25.17108l-.09833.07385a.30656.30656,0,1,0,.368.49042l.09833-.07379a.30659.30659,0,0,0-.368-.49048Z"></path><path d="M26.079,32.42126l.05933-.10687a.3066.3066,0,0,0-.53662-.29675l-.05933.10687a.3066.3066,0,1,0,.53662.29675Z"></path><path d="M36.2821,23.34442l-.12555.0506a.30659.30659,0,0,0,.11584.588.2943.2943,0,0,0,.12628-.02539l.10376-.04138a.30641.30641,0,0,0-.22034-.57184Z"></path><path d="M38.15216,22.68231l-.11206.03528a.30654.30654,0,0,0,.08087.60059.30116.30116,0,0,0,.09131-.01282l.12408-.03748a.30693.30693,0,0,0-.1842-.58557Z"></path><path d="M66.62811,37.02185a.30707.30707,0,0,0-.20068.38489l.0434.12775a.30681.30681,0,0,0,.28412.2038.30624.30624,0,0,0,.29462-.40967l-.03656-.10608A.308.308,0,0,0,66.62811,37.02185Z"></path><path d="M55.44653,24.12329a.30653.30653,0,1,0-.28253.54407l.11169.05707a.29734.29734,0,0,0,.13367.03339.30666.30666,0,0,0,.1441-.58Z"></path><path d="M53.74225,23.35248l-.10712-.0426a.30643.30643,0,0,0-.23975.564l.1214.05a.31082.31082,0,0,0,.10754.021.30689.30689,0,0,0,.11792-.59241Z"></path><path d="M42.03857,21.84717,41.916,21.863a.3067.3067,0,0,0,.03522.61066.30208.30208,0,0,0,.04553-.00287l.12012-.01593a.30638.30638,0,1,0-.07831-.60773Z"></path><path d="M51.86481,22.68774l-.10614-.03174a.30625.30625,0,1,0-.19208.5816l.12756.03931a.31061.31061,0,0,0,.08008.01215.30675.30675,0,0,0,.09058-.60132Z"></path><path d="M67.24884,51.26642a.30786.30786,0,0,0,.30231-.22974l.02942-.10974a.30667.30667,0,0,0-.58911-.17065l-.03455.12646a.30747.30747,0,0,0,.22015.37408A.29217.29217,0,0,0,67.24884,51.26642Z"></path><path d="M60.38165,27.44421a.30732.30732,0,1,0-.41522.45319l.098.08551a.30608.30608,0,1,0,.40332-.46051Z"></path><path d="M57.18109,25.08759a.30743.30743,0,0,0-.32526.52179l.10791.06537a.30061.30061,0,0,0,.15387.04456.30675.30675,0,0,0,.16425-.56891Z"></path><path d="M46.00824,21.68335l-.12213-.00568-.00958-.00012a.30681.30681,0,0,0-.02.61322l.12213.00568.00958.00018a.30684.30684,0,0,0,.02-.61328Z"></path><path d="M29.74658,61.84875a.30608.30608,0,0,0-.40332.46051l.08148.0733a.30057.30057,0,0,0,.20587.085.30674.30674,0,0,0,.21631-.52844Z"></path><path d="M44.01886,21.68073l-.12238.00507a.307.307,0,0,0,.00757.61377l.01794.00031.12238-.00513a.30867.30867,0,0,0,.29425-.31976A.31692.31692,0,0,0,44.01886,21.68073Z"></path><path d="M49.95093,22.189l-.13013-.02856a.297.297,0,0,0-.35889.24316.30514.30514,0,0,0,.24316.35889l.1087.02344a.29785.29785,0,0,0,.06335.00824.30653.30653,0,0,0,.07379-.60516Z"></path><path d="M47.98883,21.85126l-.13159-.0166a.301.301,0,0,0-.33661.2735.3071.3071,0,0,0,.27234.33661l.11359.01392a.35533.35533,0,0,0,.03595.003.30662.30662,0,0,0,.04633-.61041Z"></path><path d="M58.83282,26.19788a.30677.30677,0,0,0-.37262.48743l.10181.076a.2997.2997,0,0,0,.17755.06055.30675.30675,0,0,0,.18793-.55292Z"></path><path d="M43.89917,67.69934l-.13049-.007-.00958-.00018a.30684.30684,0,0,0-.02.61328l.11371.00677.018.00031a.307.307,0,0,0,.02838-.61316Z"></path><path d="M60.05859,62.72845a.3007.3007,0,0,0,.20862-.07794l.0827-.07172a.30608.30608,0,0,0-.38739-.474l-.10217.0882a.30671.30671,0,0,0,.19824.53546Z"></path><path d="M45.84406,67.71082l-.00958-.00012-.13068.00378a.307.307,0,0,0,.00751.61371l.018.00031.11389-.004a.30686.30686,0,0,0,.00085-.61365Z"></path><path d="M41.96423,67.5238l-.12195-.01642a.30648.30648,0,1,0-.08221.60742l.12195.01642c.012.0014.02393.00281.03589.00305a.30665.30665,0,0,0,.04633-.61047Z"></path><path d="M36.3653,66.03l-.10828-.045a.30642.30642,0,1,0-.23969.564l.1178.04993a.31942.31942,0,0,0,.10986.02222.3068.3068,0,0,0,.1203-.59119Z"></path><path d="M40.05847,67.18585l-.11823-.026a.29917.29917,0,0,0-.367.22986.30544.30544,0,0,0,.2298.367l.12061.02844a.372.372,0,0,0,.06219.007.3069.3069,0,0,0,.07263-.60632Z"></path><path d="M38.183,66.68652l-.11084-.0354a.30667.30667,0,1,0-.18732.584l.1228.038a.28031.28031,0,0,0,.08246.01337.30651.30651,0,0,0,.0929-.6Z"></path><path d="M53.37439,66.13348l-.111.04364a.30665.30665,0,0,0,.105.59265.29969.29969,0,0,0,.11536-.02081l.11829-.046a.30667.30667,0,1,0-.22766-.56952Z"></path><path d="M47.7146,67.56281l-.113.02325a.30651.30651,0,0,0,.05316.6073.29132.29132,0,0,0,.0636-.0061l.1275-.02539a.3061.3061,0,0,0,.23389-.36517A.30063.30063,0,0,0,47.7146,67.56281Z"></path><path d="M56.835,64.40424l-.09924.05939a.30726.30726,0,0,0,.31458.52789l.11145-.06879a.30644.30644,0,1,0-.32678-.51849Z"></path><path d="M58.45343,63.31714l-.10925.07965a.30656.30656,0,1,0,.368.49042l.08984-.06555a.30661.30661,0,0,0-.34857-.50452Z"></path><path d="M55.152,65.338l-.12085.05908a.30664.30664,0,1,0,.27838.54645l.10028-.04987A.30628.30628,0,0,0,55.152,65.338Z"></path><path d="M49.66425,67.24725l-.113.02325a.30655.30655,0,0,0,.05316.60736.29528.29528,0,0,0,.0636-.00616l.1275-.02539a.306.306,0,0,0,.23389-.36511A.30067.30067,0,0,0,49.66425,67.24725Z"></path><path d="M34.5033,65.16187a.3096.3096,0,0,0-.41333.1308.30614.30614,0,0,0,.1308.41327l.10455.0545a.2933.2933,0,0,0,.13959.03717.30658.30658,0,0,0,.15-.57635Z"></path><path d="M51.53711,66.771l-.10718.03174a.30672.30672,0,0,0,.07843.60175.33207.33207,0,0,0,.08893-.01166l.12885-.03857a.30656.30656,0,1,0-.189-.58325Z"></path><path d="M25.05927,34.08832l.05933-.10681a.30663.30663,0,1,0-.53668-.29675l-.05933.10681a.30663.30663,0,1,0,.53668.29675Z"></path><path d="M68.24329,47.12231l.00909-.11249a.30746.30746,0,0,0-.27228-.33783.295.295,0,0,0-.33783.2735l-.01178.13043a.30862.30862,0,0,0,.2832.32959l.01794.00031A.30715.30715,0,0,0,68.24329,47.12231Z"></path><path d="M67.67328,49.3501a.30663.30663,0,0,0,.30762-.2572l.01984-.10992a.30731.30731,0,0,0-.24072-.36121.30227.30227,0,0,0-.36127.24072l-.02258.13147a.30517.30517,0,0,0,.25287.35181A.27165.27165,0,0,0,67.67328,49.3501Z"></path><path d="M66.81085,52.42627a.31054.31054,0,0,0-.39148.1875l-.04028.11316a.3065.3065,0,0,0,.1839.39264.28565.28565,0,0,0,.09912.01849.307.307,0,0,0,.29346-.20239l.04279-.11792A.30713.30713,0,0,0,66.81085,52.42627Z"></path><path d="M31.30029,63.11017a.3061.3061,0,1,0-.40332.46057l.08142.07324a.30068.30068,0,0,0,.20587.085.30674.30674,0,0,0,.21637-.52844Z"></path><path d="M32.8299,64.195a.30728.30728,0,0,0-.3324.51691l.11029.069a.30061.30061,0,0,0,.15387.04456.30671.30671,0,0,0,.16425-.56885Z"></path><path d="M42.834,42.9043a.25.25,0,0,0-.35352-.35352l-.0752.08008a.24892.24892,0,0,0,.01465.35254.24509.24509,0,0,0,.16895.06641.24763.24763,0,0,0,.18359-.08105Z"></path><path d="M43.17285,47.39648a.24984.24984,0,1,0-.30664.39453l.08789.06543a.2438.2438,0,0,0,.14551.04688.25.25,0,0,0,.14551-.45312Z"></path><path d="M44.14355,41.84277a.2497.2497,0,0,0-.31738-.15527l-.10059.03613a.25031.25031,0,0,0,.17578.46875l.08691-.03223A.24975.24975,0,0,0,44.14355,41.84277Z"></path><path d="M41.79,44.33789a.23592.23592,0,0,0,.07227.01074.24927.24927,0,0,0,.23926-.17773l.02832-.09375a.24957.24957,0,1,0-.47656-.14844l-.03027.09766A.24948.24948,0,0,0,41.79,44.33789Z"></path><path d="M42.29883,46.33887a.24982.24982,0,1,0-.44922.21875l.0498.09668a.24989.24989,0,0,0,.44141-.23437Z"></path><path d="M41.98633,45a.25.25,0,0,0-.5,0l.002.10742.5-.0166Z"></path><path d="M47.07227,47.18945l-.07129.06348a.25044.25044,0,0,0,.332.375l.07715-.07129a.2495.2495,0,1,0-.33789-.36719Z"></path><path d="M45.41406,41.51074,45.30859,41.5l-.03711.499.084.00781.0293.002a.24989.24989,0,0,0,.0293-.498Z"></path><path d="M46.91895,42.05664,46.8291,41.999a.25041.25041,0,1,0-.26367.42578l.08008.0498a.249.249,0,0,0,.3457-.07227A.24843.24843,0,0,0,46.91895,42.05664Z"></path><path d="M45.88281,47.88281l-.08691.02441a.24993.24993,0,1,0,.13086.48242l.10449-.03027a.24957.24957,0,1,0-.14844-.47656Z"></path><path d="M48.21582,44.41016a.249.249,0,0,0-.21875.27734l.00879.0918a.24971.24971,0,0,0,.249.22852l.02148-.001a.25033.25033,0,0,0,.22754-.27051l-.01074-.10742A.24991.24991,0,0,0,48.21582,44.41016Z"></path><path d="M48.14941,45.89844a.24893.24893,0,0,0-.32227.14648l-.0332.08789a.2496.2496,0,0,0,.1377.3252.24313.24313,0,0,0,.09375.01855.24886.24886,0,0,0,.23145-.15625l.03906-.09961A.25164.25164,0,0,0,48.14941,45.89844Z"></path><path d="M47.93652,43.55566a.25034.25034,0,0,0,.08984-.3418l-.05469-.09082a.25041.25041,0,1,0-.42578.26367l.04883.0791a.24894.24894,0,0,0,.21582.124A.24461.24461,0,0,0,47.93652,43.55566Z"></path><path d="M44.51758,47.97559,44.4209,47.958a.24308.24308,0,0,0-.291.20117.25047.25047,0,0,0,.20117.291l.10059.01758a.21976.21976,0,0,0,.043.00391.24992.24992,0,0,0,.043-.49609Z"></path><path d="M45,39.083A5.917,5.917,0,1,0,50.917,45,5.92362,5.92362,0,0,0,45,39.083Zm0,11.334A5.417,5.417,0,1,1,50.417,45,5.42266,5.42266,0,0,1,45,50.417Z"></path><path d="M60.98633,19.93457H29.01367a.66726.66726,0,0,0-.667.667V56.13043a.22955.22955,0,0,0,0,.19318V69.39844a.66726.66726,0,0,0,.667.667H60.98633a.66726.66726,0,0,0,.667-.667V20.60156A.66726.66726,0,0,0,60.98633,19.93457Zm.167,49.46387a.16755.16755,0,0,1-.167.167H29.01367a.16755.16755,0,0,1-.167-.167V57.038a20.13375,20.13375,0,0,0,32.30664-.00043Zm0-13.20483a19.64962,19.64962,0,0,1-32.30664-.00323V33.8064A19.65391,19.65391,0,0,1,61.002,33.58789l.15137.21613Zm0-23.2323a20.13425,20.13425,0,0,0-32.30664.0011V20.60156a.16755.16755,0,0,1,.167-.167H60.98633a.16755.16755,0,0,1,.167.167Z"></path><path d="M41.71,15.72461H48.874a.65642.65642,0,0,0,.65625-.65625v-.18457a.65642.65642,0,0,0-.65625-.65625H41.71a.65642.65642,0,0,0-.65625.65625v.18457A.65642.65642,0,0,0,41.71,15.72461Zm-.15625-.84082a.158.158,0,0,1,.15625-.15625H48.874a.158.158,0,0,1,.15625.15625v.18457a.158.158,0,0,1-.15625.15625H41.71a.158.158,0,0,1-.15625-.15625Z"></path><path d="M37.07031,15.72461h.18457a.65642.65642,0,0,0,.65625-.65625v-.18457a.65642.65642,0,0,0-.65625-.65625h-.18457a.65642.65642,0,0,0-.65625.65625v.18457A.65642.65642,0,0,0,37.07031,15.72461Zm-.15625-.84082a.158.158,0,0,1,.15625-.15625h.18457a.15671.15671,0,0,1,.15625.15625v.18457a.158.158,0,0,1-.15625.15625h-.18457a.158.158,0,0,1-.15625-.15625Z"></path><path d="M45.18945,71.40039a3.918,3.918,0,1,0,3.918,3.918A3.92269,3.92269,0,0,0,45.18945,71.40039Zm0,7.33594a3.418,3.418,0,1,1,3.418-3.418A3.42172,3.42172,0,0,1,45.18945,78.73633Z"></path><path d="M73.47949,45a.25048.25048,0,0,0-.25-.25H65.1463a19.93753,19.93753,0,0,0-2.074-8.67529V13.36816a4.18192,4.18192,0,0,0-4.17676-4.17676h-27.791a4.18192,4.18192,0,0,0-4.17676,4.17676v22.7052A19.9326,19.9326,0,0,0,24.8537,44.75H16.77051a.25.25,0,1,0,0,.5h8.08325a19.92557,19.92557,0,0,0,2.074,8.67444v22.7074a4.18192,4.18192,0,0,0,4.17676,4.17676h27.791a4.18192,4.18192,0,0,0,4.17676-4.17676V53.92664A19.9326,19.9326,0,0,0,65.1463,45.25h8.08319A.25048.25048,0,0,0,73.47949,45ZM26.92773,52.73694A19.43614,19.43614,0,0,1,25.3537,45.25h1.574Zm0-7.98694h-1.574a19.43874,19.43874,0,0,1,1.574-7.48517ZM62.57227,76.63184a3.681,3.681,0,0,1-3.67676,3.67676h-27.791a3.681,3.681,0,0,1-3.67676-3.67676V13.36816a3.681,3.681,0,0,1,3.67676-3.67676h27.791a3.681,3.681,0,0,1,3.67676,3.67676Zm.5-23.89667V45.25h1.574A19.43874,19.43874,0,0,1,63.07227,52.73517Zm0-7.98517V37.266a19.439,19.439,0,0,1,1.574,7.484Z"></path></svg>