<svg xmlns="http://www.w3.org/2000/svg" xmlns:xlink="http://www.w3.org/1999/xlink" version="1.1" x="0px" y="0px" viewBox="0 0 51 51" enable-background="new 0 0 51 51" xml:space="preserve"><g><path d="M37.4784,30.92555c0.75854-0.70013,1.82642-1.57629,1.24707-2.04956l-3.16296-2.59247   c0.75262-1.41278,1.33252-2.92859,1.69421-4.52277c2.04144-8.99817-5.29242-20.26074-17.18213-20.26074   c-9.93823,0-19.94183,7.6579-17.9585,19.32373c1.46289,8.60114,8.81714,15.43018,17.41504,15.43018   c2.44427,0,4.83008-0.56055,7.03217-1.5495c3.3667,3.48401,2.75641,3.37939,4.45697,1.60168   c3.46124,3.95929,7.00622,7.92322,10.58703,11.80328c0.81543,0.88379,1.97559,1.39063,3.18164,1.39063h0.00049   c1.15625,0,2.24512-0.44873,3.06494-1.26318c1.63281-1.62109,1.71777-4.2373,0.19336-5.95605   C45.76648,39.70912,41.27076,34.76955,37.4784,30.92555z M19.53113,35.25392c-8.27606,0-15.08984-6.72339-16.4292-14.59814   C1.24628,9.74104,10.68909,2.50002,20.07459,2.50002c11.21387,0,18.11914,10.61066,16.20654,19.03906   C34.50769,29.35793,27.30652,35.25392,19.53113,35.25392z M29.56531,36.42043c-0.18945-0.17249-1.27277-1.35773-2.05768-2.17694   c3.07782-1.59918,5.72406-4.06354,7.54815-7.08246l2.63403,2.15881C35.25586,31.95558,31.90363,33.54915,29.56531,36.42043z    M47.14978,47.52736c-0.63135,0.62695-1.46973,0.97266-2.36084,0.97266c-0.94141,0-1.81055-0.37988-2.44678-1.06885   c-3.5874-3.88708-7.14178-7.85846-10.60846-11.82495c1.68921-1.55859,3.31555-2.59149,4.99902-4.01117   c3.78143,3.82996,8.28424,8.776,10.56696,11.3493C48.47205,44.26662,48.40662,46.27931,47.14978,47.52736z"></path><path d="M19.97449,5.2217c-7.70776,0-15.58594,5.9458-14.02832,15.10645c1.16193,6.82745,6.99579,12.05029,13.59033,12.05029   c6.43945,0,12.39941-4.86572,13.86328-11.31787C34.99683,14.01942,29.26301,5.2217,19.97449,5.2217z M32.4242,20.83888   c-1.34082,5.91016-7.00146,10.53955-12.88769,10.53955c-6.3031,0-11.56891-5.13074-12.60449-11.21826   C5.51319,11.81691,12.71418,6.2217,19.97449,6.2217C28.60212,6.2217,33.88892,14.38283,32.4242,20.83888z"></path><path d="M26.86024,10.69972c-2.16406-0.91406-4.69434-1.896-7.34033-1.97314c-2.93311-0.08105-5.56055,1.03809-7.021,3.00684   c-0.16455,0.22168-0.11816,0.53467,0.10352,0.69922c0.22113,0.16431,0.53424,0.1189,0.69922-0.10352   c1.26611-1.70605,3.58496-2.68164,6.18896-2.60254c2.47363,0.07178,4.90039,1.01514,6.98096,1.89404   c0.25488,0.10645,0.54736-0.01123,0.65479-0.26611C27.23377,11.1006,27.11463,10.80714,26.86024,10.69972z"></path></g></svg>