<svg xmlns="http://www.w3.org/2000/svg" xmlns:xlink="http://www.w3.org/1999/xlink" version="1.1" x="0px" y="0px" viewBox="0 0 600 600" style="enable-background:new 0 0 600 600;" xml:space="preserve"><g><path d="M235.57,403.07H118.44c-22.83,0-41.4-18.57-41.4-41.4V112.42c0-22.83,18.57-41.4,41.4-41.4h117.13   c22.83,0,41.4,18.57,41.4,41.4v249.25C276.97,384.5,258.4,403.07,235.57,403.07z M118.44,78.02c-18.97,0-34.4,15.43-34.4,34.4   v249.25c0,18.97,15.43,34.4,34.4,34.4h117.13c18.97,0,34.4-15.43,34.4-34.4V112.42c0-18.97-15.43-34.4-34.4-34.4H118.44z"></path></g><g><path d="M273.47,115.92H80.53c-1.93,0-3.5-1.57-3.5-3.5s1.57-3.5,3.5-3.5h192.94c1.93,0,3.5,1.57,3.5,3.5   S275.41,115.92,273.47,115.92z"></path></g><g><path d="M273.47,358.86H80.53c-1.93,0-3.5-1.57-3.5-3.5s1.57-3.5,3.5-3.5h192.94c1.93,0,3.5,1.57,3.5,3.5   S275.41,358.86,273.47,358.86z"></path></g><g><path d="M204.26,95.1h-54.53c-1.93,0-3.5-1.57-3.5-3.5s1.57-3.5,3.5-3.5h54.53c1.93,0,3.5,1.57,3.5,3.5S206.2,95.1,204.26,95.1z"></path></g><g><path d="M496.48,561.53H393.76c-9.1,0-16.51-7.41-16.51-16.51v-22.83l-30.73,4.02c-9.48,1.24-18.8-1.39-26.25-7.39   c-7.44-6.01-11.97-14.57-12.76-24.1l-3.13-38.01l-30.56,3.16c-1.27,0.13-2.5-0.43-3.22-1.47c-0.73-1.04-0.84-2.39-0.29-3.53   l33.78-70.08c0.43-66.95,55.03-121.28,122.09-121.28c67.32,0,122.09,54.77,122.09,122.08c0,25.81-7.93,50.43-22.95,71.27   l-12.48,90.43C511.71,555.4,504.68,561.53,496.48,561.53z M380.75,514.7c0.84,0,1.67,0.31,2.31,0.87c0.76,0.66,1.19,1.62,1.19,2.63   v26.82c0,5.24,4.27,9.51,9.51,9.51h102.72c4.72,0,8.77-3.53,9.42-8.21l12.6-91.3c0.08-0.57,0.3-1.12,0.64-1.59   c14.47-19.78,22.12-43.25,22.12-67.85c0-63.46-51.63-115.08-115.09-115.08s-115.09,51.62-115.09,115.08c0,0.53-0.12,1.05-0.35,1.52   l-31.4,65.15l27.89-2.88c0.94-0.09,1.87,0.19,2.6,0.79c0.72,0.6,1.18,1.47,1.25,2.41l3.43,41.57c0.63,7.61,4.24,14.43,10.18,19.23   c5.94,4.79,13.38,6.89,20.94,5.9l34.68-4.54C380.45,514.71,380.6,514.7,380.75,514.7z"></path></g><g><path d="M200.63,302.76h-47.27c-6.43,0-11.66-5.23-11.66-11.66c0-6.43,5.23-11.66,11.66-11.66h47.27c6.43,0,11.66,5.23,11.66,11.66   C212.3,297.53,207.07,302.76,200.63,302.76z M153.36,286.44c-2.57,0-4.66,2.09-4.66,4.66c0,2.57,2.09,4.66,4.66,4.66h47.27   c2.57,0,4.66-2.09,4.66-4.66c0-2.57-2.09-4.66-4.66-4.66H153.36z"></path></g><g><path d="M196.54,319.09h-39.09c-6.08,0-11.03-4.95-11.03-11.03v-1.27c0-6.08,4.95-11.03,11.03-11.03h39.09   c6.08,0,11.03,4.95,11.03,11.03v1.27C207.57,314.15,202.62,319.09,196.54,319.09z M157.45,302.76c-2.22,0-4.03,1.81-4.03,4.03v1.27   c0,2.22,1.81,4.03,4.03,4.03h39.09c2.22,0,4.03-1.81,4.03-4.03v-1.27c0-2.22-1.81-4.03-4.03-4.03H157.45z"></path></g><g><path d="M177,335.31c-10.87,0-19.72-8.84-19.72-19.72c0-1.93,1.57-3.5,3.5-3.5h32.44c1.93,0,3.5,1.57,3.5,3.5   C196.72,326.47,187.87,335.31,177,335.31z M164.77,319.09c1.52,5.32,6.43,9.22,12.23,9.22c5.8,0,10.71-3.9,12.23-9.22H164.77z"></path></g><g><path d="M200.63,286.43h-47.27c-1.36,0-2.6-0.79-3.18-2.03l-17.7-38.19c0,0,0-0.01-0.01-0.01c-3.8-7.32-5.81-15.6-5.81-23.94   c0-28.29,22.57-51.31,50.32-51.31c27.75,0,50.33,23.02,50.33,51.31c0,8.34-2.01,16.62-5.81,23.95c0,0,0,0,0,0l-17.71,38.19   C203.23,285.64,201.99,286.43,200.63,286.43z M155.6,279.43h42.8l16.73-36.09c0.04-0.09,0.08-0.17,0.12-0.25   c3.32-6.36,5.08-13.57,5.08-20.84c0-24.43-19.44-44.31-43.33-44.31c-23.89,0-43.32,19.88-43.32,44.31c0,7.27,1.76,14.47,5.08,20.84   c0.05,0.09,0.09,0.19,0.13,0.29L155.6,279.43z M218.34,244.74L218.34,244.74L218.34,244.74z"></path></g><g><path d="M167.71,286.43c-1.93,0-3.5-1.57-3.5-3.5v-22.65c0-0.93-0.41-1.81-1.14-2.4l-4.61-3.77c-2.35-1.93-3.7-4.77-3.7-7.82v-17.6   c0-1.93,1.57-3.5,3.5-3.5s3.5,1.57,3.5,3.5v17.6c0,0.93,0.41,1.81,1.14,2.4l4.61,3.77c2.35,1.93,3.7,4.78,3.7,7.82v22.65   C171.21,284.87,169.64,286.43,167.71,286.43z"></path></g><g><path d="M186.76,286.43c-1.93,0-3.5-1.57-3.5-3.5v-22.65c0-3.04,1.35-5.89,3.7-7.82l4.61-3.77c0.72-0.59,1.14-1.46,1.14-2.4v-17.6   c0-1.93,1.57-3.5,3.5-3.5s3.5,1.57,3.5,3.5v17.6c0,3.04-1.35,5.89-3.7,7.82l-4.61,3.77c-0.72,0.59-1.14,1.47-1.14,2.4v22.65   C190.26,284.87,188.69,286.43,186.76,286.43z"></path></g><g><path d="M201.94,238.46H153.1c-1.93,0-3.5-1.57-3.5-3.5s1.57-3.5,3.5-3.5h48.84c1.93,0,3.5,1.57,3.5,3.5   S203.88,238.46,201.94,238.46z"></path></g><g><path d="M177.52,156.31c-1.93,0-3.5-1.57-3.5-3.5v-17.88c0-1.93,1.57-3.5,3.5-3.5s3.5,1.57,3.5,3.5v17.88   C181.02,154.74,179.46,156.31,177.52,156.31z"></path></g><g><path d="M259.72,214.25h-17.88c-1.93,0-3.5-1.57-3.5-3.5s1.57-3.5,3.5-3.5h17.88c1.93,0,3.5,1.57,3.5,3.5   S261.65,214.25,259.72,214.25z"></path></g><g><path d="M115.25,214.25H97.36c-1.93,0-3.5-1.57-3.5-3.5s1.57-3.5,3.5-3.5h17.88c1.93,0,3.5,1.57,3.5,3.5   S117.18,214.25,115.25,214.25z"></path></g><g><path d="M134.04,175.25c-0.9,0-1.79-0.34-2.48-1.03l-12.64-12.65c-1.37-1.37-1.37-3.58,0-4.95c1.37-1.37,3.58-1.37,4.95,0   l12.64,12.65c1.37,1.37,1.37,3.58,0,4.95C135.83,174.91,134.93,175.25,134.04,175.25z"></path></g><g><path d="M220.69,175.69c-0.9,0-1.79-0.34-2.48-1.02c-1.37-1.37-1.37-3.58,0-4.95l12.65-12.65c1.37-1.37,3.58-1.37,4.95,0   c1.37,1.37,1.37,3.58,0,4.95l-12.65,12.65C222.48,175.35,221.58,175.69,220.69,175.69z"></path></g></svg>