<svg xmlns="http://www.w3.org/2000/svg" xmlns:xlink="http://www.w3.org/1999/xlink" version="1.1" x="0px" y="0px" viewBox="0 0 51 51" enable-background="new 0 0 51 51" xml:space="preserve"><g><path d="M46.20292,15.77118l-0.55566,0.5415c-0.74762,0-1.36383-0.54883-1.81641-1.13916   c0.88782-1.02057,0.13245-1.76617-0.8125-2.68683c0.95099-1.00195,1.55652-1.40558,1.10205-1.86591l-3.86279-3.90918   c-0.4436-0.44977-0.87482,0.09564-2.42322,1.39868c-1.50824-1.45984-2.13226-2.80481-3.49231-3.90747   c-2.84686-2.29529-7.51141-1.93811-10.30859,1.68799c-0.09131,0.13818-0.10547,0.32764-0.04297,0.48047   c0.03857,0.09473,1.37354,2.01904,1.89404,2.13086c1.05145,0.23041,4.69379-2.97089,5.36914,1.65625   c0.21973,1.33447-0.14844,1.79688-0.41699,2.13477c-0.46289,0.58154-0.55273,1.07275,0.36084,1.86865   c0.01971,0.01666,0.03632,0.03265,0.05585,0.04932c-1.01678,1.00616-2.02954,2.01532-3.02216,3.02148   c-0.67578,0.68494-1.36047,1.37646-2.04913,2.06824c-3.36395-3.85931-6.7951-7.62317-11.13788-11.578   c-0.01794-0.01636-0.04041-0.02289-0.06-0.03613c-0.01959-0.01343-0.03375-0.03217-0.05573-0.04297   C12.06327,6.23346,9.88554,5.1305,8.21806,4.27021c-0.00134-0.00073-0.00208-0.0022-0.00342-0.00293   C7.7534,4.02955,7.31278,3.80091,6.88389,3.57734C5.48704,2.84675,4.56571,2.34852,3.94956,2.02179   C3.65391,1.86207,3.35905,1.70258,3.07987,1.5495C3.00675,1.50916,2.92716,1.49561,2.84769,1.49433   C2.63462,1.4358,2.59147,1.51722,2.46952,1.65107c-0.15527,0.1709-0.17383,0.42578-0.04492,0.6167   c0.00665,0.00983,0.01111,0.021,0.01764,0.03088C2.5543,2.46802,2.65092,2.64539,2.73679,2.8288   C2.7728,2.90589,2.80253,2.98694,2.83482,3.06623C2.88444,3.18793,2.93363,3.31,2.97587,3.43635   c0.03204,0.09595,0.06165,0.1936,0.09039,0.29187C3.10117,3.84748,3.13548,3.96723,3.16673,4.0896   C3.19413,4.1966,3.2216,4.30359,3.24729,4.41236C3.27921,4.5481,3.31101,4.68433,3.34196,4.8227   c0.07611,0.33954,0.15417,0.68256,0.24255,1.02667c0.01678,0.06555,0.03571,0.13,0.05359,0.1955   c0.08502,0.31158,0.17853,0.62231,0.29919,0.927c0.06006,0.15137,0.16968,0.3847,0.31122,0.66968   C4.2924,7.7309,4.32975,7.82331,4.37431,7.9123l0.06201,0.12402c0.0072,0.01447,0.02179,0.02246,0.03021,0.03601   c1.039,2.01978,3.11639,5.68854,3.24811,5.77698c3.90826,2.63495,5.24963,5.22095,11.78784,11.83075   c-10.0719,9.27618-6.29755,6.23102-17.85327,17.65704c-0.09863,0.09717-0.15234,0.23096-0.14844,0.36963   s0.06543,0.26904,0.16895,0.36084c1.94043,1.71149,1.90411,2.30457,4.24756,4.04785   c0.08887,0.06592,0.19385,0.09863,0.29834,0.09863c0.13086,0,0.26074-0.05127,0.3584-0.15137   c4.71265-4.8418,9.29797-8.51123,18.18005-17.06921c18.24042,18.37793,16.53265,18.83276,18.4101,18.46167   c0.28369-0.05554,0.61121-0.2077,0.86591-0.45789c0.61163-0.60077,4.28363-4.36578,4.54956-5.16803   c0.78156-2.40271-2.40094-1.48676-17.58533-18.96795c1.57513-1.57617,3.26501-3.289,5.06818-5.13885   c0.72729,0.79053,1.46552,0.93225,2.4632,0.28119c1.46484,0.60443,1.24469,0.5863,1.68115,1.60791   c-0.2832,0.37744-0.52979,0.89648-0.36182,1.55713c0.26416,0.99756,1.41846,1.99756,2.08398,2.39307   c0.07861,0.04688,0.16699,0.07031,0.25537,0.07031c0.104,0,0.20801-0.03271,0.2959-0.09668   c0.34625-0.25421,7.05219-7.04291,7.01904-7.49121c-0.00977-0.13916-0.07715-0.26758-0.18604-0.35449   C47.24284,16.20582,46.75211,15.22046,46.20292,15.77118z M39.85966,7.73163l3.20996,3.24854   c-0.2666,0.28186-0.52643,0.5553-0.78741,0.83014c-1.30591-1.14563-2.46576-1.94659-3.70734-3.02557   C39.00101,8.42829,39.42741,8.07258,39.85966,7.73163z M4.83146,6.49225C4.67454,6.07429,4.55869,5.63544,4.45371,5.18274   C4.38279,4.76191,4.29807,4.24238,3.94022,3.15449C4.9459,3.69532,6.01127,4.25678,7.14579,4.84443L5.03764,6.95209   C4.95719,6.78101,4.88895,6.62861,4.83146,6.49225z M5.50755,7.89631l2.57141-2.57104   c1.74615,0.89661,3.65259,1.8551,5.776,2.90356c-1.70972,1.71594-3.61523,3.22644-5.68372,4.49921   C6.86204,10.41633,6.03843,8.92151,5.50755,7.89631z M8.90604,13.46454c2.12012-1.32617,4.07422-2.89502,5.82275-4.6748   c4.15436,3.81714,7.47852,7.47192,10.74426,11.21954c-1.36377,1.36017-2.74664,2.71082-4.14661,3.99432   c-0.38239,0.35065-0.73737,0.67682-1.08759,0.99872C13.79929,18.49573,12.68497,16.22785,8.90604,13.46454z M47.49442,43.75214   c-1.49805,1.76074-2.89844,3.28418-4.16455,4.53027c-0.78546,0.78546-1.16608-0.29291-5.78564-5.55713   c2.729-2.91302,3.97241-3.53833,4.98926-4.29797C47.33585,42.90363,48.15287,42.99378,47.49442,43.75214z M41.78666,37.72522   c-1.61584,1.0448-3.17004,2.39636-4.97815,4.32703c-3.69623-4.02344-7.54138-7.93134-11.33539-11.75451   c1.48309-1.43573,3.08179-3.00488,4.81122-4.72864C33.64048,29.43177,37.23966,33.42157,41.78666,37.72522z M6.1663,47.04902   c-1.79608-1.39178-1.85974-1.90546-3.43848-3.37256c11.90155-11.78314,6.93402-7.6189,19.27441-18.93554   c2.37256-2.17578,4.69482-4.52979,6.94043-6.80615c1.00494-1.01843,2.0285-2.04041,3.05707-3.05865   c1.65552,1.54218,2.49829,2.77698,3.43335,4.05878C18.895,35.90693,12.45072,40.65259,6.1663,47.04902z M42.14188,24.5041   c-0.5874-0.42871-1.19824-1.09326-1.3291-1.58643c-0.17291-0.68311,0.69379-0.87347,0.43066-1.4375   c-0.12305-0.26367-0.20605-0.47559-0.27539-0.65137c-0.36572-0.93213-0.55273-1.13428-2.31543-1.854   c-0.69568-0.28387-0.94885,1.08716-1.8927,0.03296c0.00958-0.00989,0.01849-0.01898,0.02814-0.02887   c-0.20081-0.27386-0.40021-0.54816-0.59015-0.82813c-0.01898,0.01953-0.03662,0.03748-0.0556,0.05701   c-1.24207-1.71771-2.29095-3.11029-4.2934-4.80475c-0.24316-0.21191-0.32471-0.32178-0.35156-0.32568   c0.46588-0.73834,1.05951-1.15845,0.74414-3.07227c-0.44092-3.02472-2.58887-4.11139-5.14453-2.87695   c-0.29297,0.1416-0.72119,0.34863-0.93848,0.38916c-0.2417-0.23389-0.8042-0.92725-1.09229-1.31641   c2.42279-2.85541,6.27771-3.13177,8.64697-1.22021c1.84784,1.49585,1.26978,2.30847,6.03564,6.04834   c4.09619,3.21564,3.61975,3.22015,3.07764,3.7373c-0.16748,0.16748-0.19434,0.4292-0.06494,0.62744   c1.32074,2.01599,3.07739,2.13745,3.42432,1.79053l0.40332-0.39307l1.67676,1.34131   C46.14872,20.38837,43.09892,23.59687,42.14188,24.5041z"></path></g></svg>