<svg xmlns="http://www.w3.org/2000/svg" xmlns:xlink="http://www.w3.org/1999/xlink" version="1.1" x="0px" y="0px" viewBox="0 0 600 600" style="enable-background:new 0 0 600 600;" xml:space="preserve"><g><path d="M270.38,527.58h-157.7c-30.07,0-54.53-24.46-54.53-54.53V137.47c0-30.07,24.46-54.53,54.53-54.53h157.7   c30.07,0,54.53,24.46,54.53,54.53v335.58C324.91,503.12,300.44,527.58,270.38,527.58z M112.68,89.94   c-26.21,0-47.53,21.32-47.53,47.53v335.58c0,26.21,21.32,47.53,47.53,47.53h157.7c26.21,0,47.53-21.32,47.53-47.53V137.47   c0-26.21-21.32-47.53-47.53-47.53H112.68z"></path></g><g><path d="M321.41,140.97H61.64c-1.93,0-3.5-1.57-3.5-3.5s1.57-3.5,3.5-3.5h259.76c1.93,0,3.5,1.57,3.5,3.5   S323.34,140.97,321.41,140.97z"></path></g><g><path d="M321.41,464.59H61.64c-1.93,0-3.5-1.57-3.5-3.5s1.57-3.5,3.5-3.5h259.76c1.93,0,3.5,1.57,3.5,3.5   S323.34,464.59,321.41,464.59z"></path></g><g><path d="M228.23,112.94h-73.41c-1.93,0-3.5-1.57-3.5-3.5s1.57-3.5,3.5-3.5h73.41c1.93,0,3.5,1.57,3.5,3.5   S230.17,112.94,228.23,112.94z"></path></g><g><path d="M290,423.53H93.06c-8.55,0-15.5-6.95-15.5-15.5V290.15c0-8.55,6.95-15.5,15.5-15.5H290c8.55,0,15.5,6.95,15.5,15.5v117.88   C305.5,416.58,298.54,423.53,290,423.53z M93.06,281.65c-4.69,0-8.5,3.81-8.5,8.5v117.88c0,4.69,3.81,8.5,8.5,8.5H290   c4.69,0,8.5-3.81,8.5-8.5V290.15c0-4.69-3.81-8.5-8.5-8.5H93.06z"></path></g><g><path d="M276.29,321.67H176.06c-1.93,0-3.5-1.57-3.5-3.5s1.57-3.5,3.5-3.5h100.24c1.93,0,3.5,1.57,3.5,3.5   S278.22,321.67,276.29,321.67z"></path></g><g><path d="M202.64,306.61h-26.59c-1.93,0-3.5-1.57-3.5-3.5s1.57-3.5,3.5-3.5h26.59c1.93,0,3.5,1.57,3.5,3.5   S204.58,306.61,202.64,306.61z"></path></g><g><path d="M276.29,336.73H176.06c-1.93,0-3.5-1.57-3.5-3.5s1.57-3.5,3.5-3.5h100.24c1.93,0,3.5,1.57,3.5,3.5   S278.22,336.73,276.29,336.73z"></path></g><g><path d="M276.29,383.51H176.06c-1.93,0-3.5-1.57-3.5-3.5s1.57-3.5,3.5-3.5h100.24c1.93,0,3.5,1.57,3.5,3.5   S278.22,383.51,276.29,383.51z"></path></g><g><path d="M202.64,368.45h-26.59c-1.93,0-3.5-1.57-3.5-3.5s1.57-3.5,3.5-3.5h26.59c1.93,0,3.5,1.57,3.5,3.5   S204.58,368.45,202.64,368.45z"></path></g><g><path d="M276.29,398.57H176.06c-1.93,0-3.5-1.57-3.5-3.5s1.57-3.5,3.5-3.5h100.24c1.93,0,3.5,1.57,3.5,3.5   S278.22,398.57,276.29,398.57z"></path></g><g><path d="M147.82,250.59H99.47c-8.55,0-15.5-6.95-15.5-15.5v-48.35c0-8.55,6.95-15.5,15.5-15.5h48.35c8.55,0,15.5,6.95,15.5,15.5   v48.35C163.32,243.63,156.37,250.59,147.82,250.59z M99.47,178.23c-4.69,0-8.5,3.81-8.5,8.5v48.35c0,4.69,3.81,8.5,8.5,8.5h48.35   c4.69,0,8.5-3.81,8.5-8.5v-48.35c0-4.69-3.81-8.5-8.5-8.5H99.47z"></path></g><g><path d="M240.64,250.59h-48.35c-8.55,0-15.5-6.95-15.5-15.5v-48.35c0-8.55,6.95-15.5,15.5-15.5h48.35c8.55,0,15.5,6.95,15.5,15.5   v48.35C256.14,243.63,249.19,250.59,240.64,250.59z M192.29,178.23c-4.69,0-8.5,3.81-8.5,8.5v48.35c0,4.69,3.81,8.5,8.5,8.5h48.35   c4.69,0,8.5-3.81,8.5-8.5v-48.35c0-4.69-3.81-8.5-8.5-8.5H192.29z"></path></g><g><path d="M321.41,250.58h-36.29c-8.55,0-15.5-6.95-15.5-15.5v-48.35c0-8.55,6.95-15.5,15.5-15.5h36.29c1.93,0,3.5,1.57,3.5,3.5   v72.35C324.91,249.02,323.34,250.58,321.41,250.58z M285.12,178.23c-4.69,0-8.5,3.81-8.5,8.5v48.35c0,4.69,3.81,8.5,8.5,8.5h32.79   v-65.35H285.12z"></path></g><g><path d="M123.64,342.21c-13.26,0-24.05-10.79-24.05-24.04c0-13.26,10.79-24.05,24.05-24.05c13.26,0,24.04,10.79,24.04,24.05   C147.69,331.43,136.9,342.21,123.64,342.21z M123.64,301.12c-9.4,0-17.05,7.65-17.05,17.05c0,9.4,7.65,17.04,17.05,17.04   c9.4,0,17.04-7.65,17.04-17.04C140.69,308.77,133.04,301.12,123.64,301.12z"></path></g><g><path d="M123.64,404.05c-13.26,0-24.05-10.79-24.05-24.05c0-13.26,10.79-24.04,24.05-24.04c13.26,0,24.04,10.79,24.04,24.04   C147.69,393.27,136.9,404.05,123.64,404.05z M123.64,362.96c-9.4,0-17.05,7.65-17.05,17.04c0,9.4,7.65,17.05,17.05,17.05   c9.4,0,17.04-7.65,17.04-17.05C140.69,370.61,133.04,362.96,123.64,362.96z"></path></g><g><path d="M532.69,497.07h-20.66c-4.96,0-8.69-5.22-8.69-12.14v-67.7c0-6.92,3.74-12.14,8.69-12.14h20.66   c4.96,0,8.69,5.22,8.69,12.14v67.7C541.39,491.85,537.65,497.07,532.69,497.07z M512.09,412.09c-0.52,0.24-1.75,2.04-1.75,5.14   v67.7c0,3.15,1.27,4.96,1.78,5.15l20.58-0.01c0.42-0.18,1.69-1.98,1.69-5.14v-67.7c0-3.15-1.27-4.96-1.78-5.15L512.09,412.09z"></path></g><g><path d="M506.84,489.46h-6.26c-4.81,0-8.72-3.91-8.72-8.71v-59.32c0-4.81,3.91-8.72,8.72-8.72h6.26c1.93,0,3.5,1.57,3.5,3.5v69.75   C510.34,487.9,508.77,489.46,506.84,489.46z M500.58,419.71c-0.95,0-1.72,0.77-1.72,1.72v59.32c0,0.94,0.77,1.71,1.72,1.71h2.76   v-62.75H500.58z"></path></g><g><path d="M441.28,502.67c-0.61,0-1.21-0.16-1.75-0.47l-83.52-48.09c-1.08-0.62-1.75-1.78-1.75-3.03s0.67-2.41,1.75-3.03l83.52-48.08   c0.89-0.51,1.97-0.61,2.94-0.26c0.97,0.35,1.73,1.11,2.09,2.08c11.22,30.28,50.83,35.46,51.23,35.51c1.76,0.21,3.08,1.71,3.08,3.47   v20.64c0,1.77-1.32,3.26-3.08,3.48c-0.4,0.05-40,5.23-51.22,35.51c-0.36,0.97-1.12,1.73-2.09,2.08   C442.08,502.61,441.68,502.67,441.28,502.67z M364.77,451.08l74.81,43.07c12.18-26.31,42.45-33.92,52.29-35.74v-14.66   c-9.83-1.81-40.11-9.42-52.29-35.74L364.77,451.08z"></path></g><g><path d="M435.59,466.5c-8.5,0-15.41-6.91-15.41-15.41s6.91-15.41,15.41-15.41s15.41,6.91,15.41,15.41S444.09,466.5,435.59,466.5z    M435.59,442.67c-4.64,0-8.41,3.77-8.41,8.41s3.77,8.41,8.41,8.41s8.41-3.77,8.41-8.41S440.23,442.67,435.59,442.67z"></path></g><g><path d="M423.68,454.59L423.68,454.59l-62.61,0c-1.93,0-3.5-1.57-3.5-3.5c0-1.93,1.57-3.5,3.5-3.5l0,0l62.61,0   c1.93,0,3.5,1.57,3.5,3.5C427.18,453.02,425.61,454.59,423.68,454.59z"></path></g><g><path d="M437.7,356.85c-0.63,0-1.26-0.17-1.82-0.51l-78.77-48.09c-1.04-0.64-1.68-1.77-1.68-2.99s0.64-2.35,1.68-2.99l78.77-48.09   c1.08-0.66,2.43-0.68,3.54-0.06c1.1,0.62,1.79,1.79,1.79,3.05v96.17c0,1.27-0.68,2.43-1.79,3.05   C438.88,356.7,438.29,356.85,437.7,356.85z M365.65,305.26l68.55,41.85v-83.7L365.65,305.26z"></path></g><g><path d="M537.89,356.85H437.7c-1.93,0-3.5-1.57-3.5-3.5s1.57-3.5,3.5-3.5h96.69v-89.17H437.7c-1.93,0-3.5-1.57-3.5-3.5   s1.57-3.5,3.5-3.5h100.19c1.93,0,3.5,1.57,3.5,3.5v96.17C541.39,355.28,539.82,356.85,537.89,356.85z"></path></g><g><path d="M537.89,289.09H437.7c-1.93,0-3.5-1.57-3.5-3.5s1.57-3.5,3.5-3.5h100.19c1.93,0,3.5,1.57,3.5,3.5   S539.82,289.09,537.89,289.09z"></path></g><g><path d="M391.16,329.18c-1.93,0-3.5-1.57-3.5-3.5v-40.09c0-1.93,1.57-3.5,3.5-3.5s3.5,1.57,3.5,3.5v40.09   C394.66,327.61,393.09,329.18,391.16,329.18z"></path></g><g><path d="M537.23,211.03H361.07c-1.93,0-3.5-1.57-3.5-3.5V105.24c0-1.93,1.57-3.5,3.5-3.5h176.16c1.93,0,3.5,1.57,3.5,3.5v102.28   C540.73,209.46,539.16,211.03,537.23,211.03z M364.57,204.03h169.16v-95.28H364.57V204.03z"></path></g><g><path d="M415.98,134.03c-1.93,0-3.5-1.57-3.5-3.5v-25.29c0-1.93,1.57-3.5,3.5-3.5s3.5,1.57,3.5,3.5v25.29   C419.48,132.46,417.92,134.03,415.98,134.03z"></path></g><g><path d="M389.39,134.03c-1.93,0-3.5-1.57-3.5-3.5v-25.29c0-1.93,1.57-3.5,3.5-3.5s3.5,1.57,3.5,3.5v25.29   C392.89,132.46,391.32,134.03,389.39,134.03z"></path></g><g><path d="M442.58,134.03c-1.93,0-3.5-1.57-3.5-3.5v-25.29c0-1.93,1.57-3.5,3.5-3.5s3.5,1.57,3.5,3.5v25.29   C446.08,132.46,444.51,134.03,442.58,134.03z"></path></g><g><path d="M469.17,134.03c-1.93,0-3.5-1.57-3.5-3.5v-25.29c0-1.93,1.57-3.5,3.5-3.5s3.5,1.57,3.5,3.5v25.29   C472.67,132.46,471.1,134.03,469.17,134.03z"></path></g><g><path d="M495.77,148.62c-1.93,0-3.5-1.57-3.5-3.5v-39.87c0-1.93,1.57-3.5,3.5-3.5s3.5,1.57,3.5,3.5v39.87   C499.27,147.05,497.7,148.62,495.77,148.62z"></path></g><g><path d="M522.36,134.03c-1.93,0-3.5-1.57-3.5-3.5v-25.29c0-1.93,1.57-3.5,3.5-3.5s3.5,1.57,3.5,3.5v25.29   C525.86,132.46,524.29,134.03,522.36,134.03z"></path></g></svg>