<svg xmlns="http://www.w3.org/2000/svg" xmlns:xlink="http://www.w3.org/1999/xlink" version="1.1" x="0px" y="0px" viewBox="0 0 51 51" enable-background="new 0 0 51 51" xml:space="preserve"><g><path d="M44.65085,2.62305c-0.40967,0.45068-0.97119,1.06787-1.7959,1.85645c-0.00781,0.00745-0.01154,0.01733-0.01874,0.02515   c-0.67291,0.646-1.36774,1.27118-2.1059,1.91455C31.33176-1.96631,15.81564,1.00091,7.37839,9.8501   c-4.09814,4.29834-6.12598,9.4707-5.86426,14.9585c0.18359,3.84229,1.12549,11.32422,2.87158,15.04297   c4.08667,8.70587,14.00842,10.29376,23.59521,9.52344c6.16113-0.49512,13.79932-1.85303,18.21631-8.01465   c5.91113-8.24585,2.75385-23.90705-2.2226-31.23566c5.10211-4.51715,6.19208-4.79565,5.20355-6.09686   C45.91129,0.70703,45.93405,1.21203,44.65085,2.62305z M45.38474,40.77734c-4.17773,5.82813-11.53809,7.12305-17.48389,7.60059   c-11.73047,0.94336-19.38574-2.08252-22.60986-8.95117C3.69577,36.0293,2.70603,28.80517,2.51315,24.76074   c-0.24854-5.20752,1.68408-10.125,5.58887-14.2207c8.01465-8.40613,22.83417-11.38116,31.85834-3.45392   c-0.21588,0.18579-0.4325,0.37195-0.65717,0.56476c-0.54199,0.46484-1.10901,0.95129-1.70715,1.47272   c-7.85944-6.34698-20.32672-3.83502-27.18298,3.3559C6.99899,16.06054,5.30954,20.3706,5.5278,24.94336   c0.15234,3.19141,0.93555,9.40821,2.38867,12.50391c4.37006,9.3092,19.52826,9.47729,27.8999,6.32373   c9.48096-3.56982,12.09766-12.96778,7.36865-26.46387c-0.58038-1.65601-1.341-3.13617-2.23462-4.46442   c0.77429-0.70703,1.5365-1.3938,2.26685-2.04504C47.69351,17.46185,51.23807,32.6123,45.38474,40.77734z M24.50485,25.74463   c0.09473,0.08643,0.21582,0.13037,0.33691,0.13037c0.09717,0,0.19482-0.02832,0.27979-0.08545   c0.31348-0.21191,0.44727-0.23877,0.74023-0.29834c0.466-0.09467,1.16821-0.23767,2.93799-1.14001   c0.48566,1.54877,0.49139,2.75281-0.02734,3.55066c-0.48779,0.74951-1.45801,1.1875-2.88379,1.30176   c-2.89111,0.2334-3.9043-0.64648-4.05371-3.79346c-0.05225-1.09766,0.75244-2.57422,2.18994-3.14453   c0.35791-0.14209,0.82373-0.22021,1.31201-0.22021c0.21375,0,0.43811,0.01917,0.66602,0.05573   c-0.57611,1.12616-1.10492,2.13074-1.59961,3.03363C24.29245,25.33691,24.33444,25.58887,24.50485,25.74463z M27.41806,23.90582   l-0.80469-0.80481c0.4646-0.90039,0.95947-1.88007,1.50177-2.97485c0.71307,0.74164,1.3504,1.5531,1.90564,2.42395   C28.87003,23.20306,28.0433,23.62225,27.41806,23.90582z M27.60983,18.93701c-0.01709,0.01874-0.02399,0.04205-0.03766,0.0625   c-0.01288,0.01898-0.03107,0.03253-0.04144,0.05371c-0.37726,0.76678-0.72601,1.46423-1.06256,2.13153   c-0.3877-0.08289-0.77246-0.13934-1.13129-0.13934c-0.62012,0-1.20166,0.10059-1.68115,0.29053   c-1.92285,0.76318-2.8877,2.69336-2.81982,4.12207c0.16119,3.3855,1.37335,5.04443,5.13281,4.74268   c1.75098-0.14063,2.97607-0.73047,3.6416-1.75391c0.71234-1.09448,0.74042-2.63611,0.0965-4.57599   c2.11969-1.15417,0.72327-0.23322,3.0033-2.86047c0.14606,0.2948,0.28143,0.6004,0.39581,0.9267   c1.19678,3.41553,2.39551,9.4502-3.0249,11.49121c-4.02148,1.51367-10.35767,1.27191-12.17236-2.59326   c-0.55859-1.19092-1.58887-5.50684-0.59717-8.16992c1.70892-4.59021,7.40961-6.96497,11.67523-5.2171   C28.53928,17.92584,28.08359,18.41687,27.60983,18.93701z M16.37399,22.3164c-1.20019,3.22363,0.14258,7.90576,0.62939,8.94336   c2.08649,4.44385,8.96783,4.78491,13.43018,3.10401c4.60693-1.73438,5.89111-6.26514,3.61572-12.75781   c-0.17401-0.49652-0.3941-0.9527-0.63379-1.39026c0.88019-0.96576,1.90344-2.01276,2.99432-3.086   c0.49768,0.80878,0.93988,1.67938,1.28009,2.65009c1.91016,5.45068,3.81299,15.08545-4.90771,18.36914   c-5.69421,2.14349-16.41156,2.22839-19.43311-4.20898c-0.91992-1.95899-2.55225-8.70899-0.9458-13.02344   c2.92822-7.86572,13.61236-11.86548,20.47589-7.45209c-0.98248,0.95874-2.04083,2.02887-3.1828,3.23035   C24.81888,14.39764,18.29996,17.14392,16.37399,22.3164z M11.46579,20.56787c-1.70898,4.59082,0.00732,11.72998,0.97803,13.79688   c3.24628,6.91486,14.43054,7.07703,20.69092,4.71973c7.05273-2.65527,9.00586-9.62891,5.49854-19.63574   c-0.39166-1.11768-0.90601-2.11517-1.48999-3.03479c0.9942-0.96246,2.02899-1.93549,3.05865-2.88452   c0.81281,1.22699,1.50708,2.58881,2.03973,4.10876c2.61768,7.47119,5.21875,20.68018-6.77783,25.19727   c-7.84412,2.95428-22.48987,3.03192-26.64209-5.81299c-1.31787-2.80713-2.13525-8.78125-2.29492-12.12696   c-0.20508-4.29297,1.38916-8.34766,4.60986-11.72607c6.39569-6.70801,18.1568-9.30035,25.68878-3.36859   c-0.97955,0.86658-2.04004,1.83112-3.20984,2.95142C26.40146,7.90509,14.75192,11.74176,11.46579,20.56787z M30.75436,21.82617   c-0.60693-0.92529-1.30371-1.78662-2.08008-2.57129C35.7048,11.58404,39.69278,8.82281,43.11667,5.62103   c0.5918,0.88098,1.26666,1.61731,1.91827,2.2417C40.73709,11.61194,33.59854,18.04761,30.75436,21.82617z M48.46017,4.91186   c-1.8158,1.55829-2.36218,2.02332-2.67114,2.29419c-0.66431-0.63165-1.36871-1.37823-1.94843-2.27802   c2.28973-2.24573,2.03662-2.39465,2.31097-2.32526c0.65802,0.58051,1.44263,1.22217,2.34851,2.21716   c0,0.00092,0.00128,0.00226,0.00122,0.00317C48.49966,4.85803,48.48135,4.88782,48.46017,4.91186z"></path></g></svg>