<svg xmlns="http://www.w3.org/2000/svg" viewBox="0 0 90 90" x="0px" y="0px"><defs><style>.a{fill:none;}</style></defs><title>Artboard 35</title><path class="a" d="M29.94336,38.92426a4.58961,4.58961,0,0,0-3.17334-1.188c-.05225-.002-.105-.00293-.15723-.00293a4.60414,4.60414,0,0,0-3.0332,1.19092c-2.69092,2.28711-.88135,5.78271-.86279,5.81787a10.14339,10.14339,0,0,1,1.64795,3.80225c.12842,1.13379.49951,1.39307.63184,1.39746l3.52051-.00049c.14111-.00391.51221-.26318.64063-1.397a10.243,10.243,0,0,1,1.66406-3.8291C30.88086,44.59906,32.62793,41.20648,29.94336,38.92426Zm.11328,3.58789a.25.25,0,0,1-.24268.18945.25976.25976,0,0,1-.06055-.00732.24943.24943,0,0,1-.18311-.1875,3.076,3.076,0,0,0-1.21045-.17773l-.09619-.24951.00684.25-.09082.00244-.06543.00244a3.36227,3.36227,0,0,0-.8584.12988l-.01221.00342c-.05365.01862-.14191.05518-.22656.09125.00305.01569.01758.02594.01758.04254v5.53857h.57813a.47407.47407,0,0,1,.46533.481.2433.2433,0,0,1-.24219.2417.27908.27908,0,0,1-.25586-.22266H25.95654a.22792.22792,0,0,1-.23242.24072.24445.24445,0,0,1-.23291-.25977.47407.47407,0,0,1,.46533-.481h.57813V42.77966c-.07471.0296-.15875.06091-.26611.09674a3.77737,3.77737,0,0,1-.98437.15576l-.0918.00342-.09424.00244-.08936.00049c-.48145,0-1.59668-.05176-1.7041-.53027a.422.422,0,0,1-.00879-.07471.27287.27287,0,0,1,.29053-.23486.24035.24035,0,0,1,.20313.16016,3.03593,3.03593,0,0,0,1.2124.17969l.09619.24951-.00635-.25.07275-.002.08252-.00293a3.371,3.371,0,0,0,.85938-.12988c.11938-.03961.41925-.17273.46-.19208a2.63715,2.63715,0,0,1,.52533-.21954l.01172-.00391a3.819,3.819,0,0,1,.97412-.15234l.09229-.00342.09375-.00244L28.353,41.829c.48145,0,1.59717.05176,1.70508.53027l.00781.07422A.42173.42173,0,0,1,30.05664,42.51215Z"></path><path class="a" d="M78.271,45.00049c.00049-.25537-.00684-.51074-.01953-.76807l.24707-.09863-.24951.01367a15.32,15.32,0,0,0-15.30029-14.4707l-.07324-.25.001.25c-.07129.00049-.1416.00391-.21191.00732l-.292.00977c-.14551.00391-.291.00781-.43506.01758-.147.00928-.2915.0249-.43652.04l-.27734.02783c-.07471.00684-.14941.01416-.22314.02344-.26611.03418-.5293.07764-.79053.125l-.15332-.228.04639.24561A15.25269,15.25269,0,0,0,50.481,36.09375l-.04248.05518C49.15234,37.90625,45.71045,44.15527,45.271,45c.43945.84473,3.88135,7.09375,5.16748,8.85107l.04248.05518A15.25269,15.25269,0,0,0,60.103,60.05469l.106.01758c.26221.04736.52539.09082.7915.125.07373.00928.14844.0166.22314.02344l.27734.02783c.145.01514.28955.03076.436.04.14453.00977.29.01367.43555.01758l.292.00977c.07031.00342.14063.00684.21191.00732l.06152-.00049.00537.00049A15.32122,15.32122,0,0,0,78.249,45.85254l.252-.0708h-.25C78.26416,45.51025,78.27148,45.25488,78.271,45.00049ZM56.79883,42.1969c.05762,1.04492.105,1.90283-1.06152,2.41895a1.38881,1.38881,0,0,1,1.08105,1.54492c-.00439,1.05811,0,1.69775,0,1.69824a.85488.85488,0,0,0,.16211.6499,1.61861,1.61861,0,0,0,1.17676.46777,1.79862,1.79862,0,0,0,.84375-.88818.25.25,0,0,1,.45508.207,2.26308,2.26308,0,0,1-1.1709,1.16943.24246.24246,0,0,1-.08545.01514l-.01465-.00049a2.08762,2.08762,0,0,1-1.60449-.67041,1.32451,1.32451,0,0,1-.2583-.99316c-.00439-.00049-.0083-.63379-.00391-1.65723.00342-.84521-.25732-.92725-1.35449-1.27393l-.10254-.03271a.25.25,0,0,1,.01758-.48145c1.519-.36182,1.48828-.9209,1.42041-2.146-.0127-.23145-.02637-.479-.02979-.74365a1.66792,1.66792,0,0,1,.49756-1.31494,2.042,2.042,0,0,1,1.4585-.439,2.33515,2.33515,0,0,1,1.21777.87354.2503.2503,0,0,1-.42969.25684,1.87042,1.87042,0,0,0-.89014-.64355,1.596,1.596,0,0,0-1.021.32324,1.1929,1.1929,0,0,0-.333.937C56.77295,41.73157,56.78613,41.97229,56.79883,42.1969Zm9.13477-3.36169L61.03418,50.55786a.24974.24974,0,0,1-.46094-.19238l4.89941-11.72266a.24974.24974,0,1,1,.46094.19238Zm5.71191,6.01465-.10254.03271c-1.09717.34668-1.35791.42871-1.35449,1.27393.00488,1.04468,0,1.68219,0,1.70313a1.28594,1.28594,0,0,1-.26221.94727,2.08727,2.08727,0,0,1-1.604.67041l-.01465.00049a.24246.24246,0,0,1-.08545-.01514,2.26313,2.26313,0,0,1-1.17139-1.16943.25.25,0,1,1,.45508-.207,1.8009,1.8009,0,0,0,.84424.88818,1.61825,1.61825,0,0,0,1.17627-.46777.81592.81592,0,0,0,.1665-.60254c-.00439-.04834.00049-.6875-.00439-1.74561a1.38881,1.38881,0,0,1,1.08105-1.54492c-1.166-.51611-1.11865-1.37354-1.06152-2.418.0127-.22461.02588-.46582.0293-.72363a1.1929,1.1929,0,0,0-.333-.937,1.54943,1.54943,0,0,0-1.06934-.313,1.93509,1.93509,0,0,0-.8418.6333.2503.2503,0,1,1-.42969-.25684,2.36408,2.36408,0,0,1,1.166-.8623,2.0258,2.0258,0,0,1,1.51025.42773,1.66657,1.66657,0,0,1,.49756,1.31494c-.00342.26514-.01709.51318-.02979.74463-.06738,1.22412-.09814,1.7832,1.42041,2.145a.25.25,0,0,1,.01758.48145Z"></path><path class="a" d="M29.88428,29.94531l-.106-.01758c-.2627-.04736-.52539-.09082-.7915-.125-.07324-.00928-.14746-.01611-.22217-.02344l-.27832-.02783c-.145-.01514-.28955-.03076-.436-.04-.14453-.00977-.29-.01367-.43555-.01758l-.292-.00977c-.07031-.00342-.14062-.00684-.21191-.00732l-.06152.00049-.00537-.00049a15.32122,15.32122,0,0,0-15.30566,14.4707l-.252.0708h.25c-.01318.27148-.02051.52686-.02.78125-.00049.25537.00684.51074.01953.76758l-.24707.09912.24951-.01367a15.32,15.32,0,0,0,15.30029,14.4707l.07324.25-.001-.25c.07129-.00049.1416-.00391.21191-.00732l.292-.00977c.14551-.00391.291-.00781.43506-.01758.147-.00928.2915-.0249.43652-.04l.27832-.02783c.07471-.00732.14893-.01416.22217-.02344.26611-.03418.52881-.07764.79053-.125l.15332.228-.04639-.24561a15.25269,15.25269,0,0,0,9.62207-6.14844l.04248-.05518C40.835,52.09375,44.27686,45.84473,44.71631,45c-.43945-.84473-3.88135-7.09375-5.16748-8.85107h-.00049l.20215-.14746-.21631.12842A15.28944,15.28944,0,0,0,29.88428,29.94531ZM28.771,52.10541a2.01208,2.01208,0,0,1-.53516,1.38135l-.78516.84082a.8706.8706,0,0,1-.63477.28076.9107.9107,0,0,1-.69775-.28125l-.78467-.84082a2.01131,2.01131,0,0,1-.53564-1.38086V51.5141a.25.25,0,0,1,.5,0v.59131a1.533,1.533,0,0,0,.40088,1.03955l.78516.8418a.36616.36616,0,0,0,.26953.12158.41129.41129,0,0,0,.33154-.12109l.78564-.8418a1.53517,1.53517,0,0,0,.40039-1.04v-.54932a.25.25,0,0,1,.5,0Zm2.47607-7.12891A10.00929,10.00929,0,0,0,29.65479,48.601c-.21191,1.874-1.064,1.84766-1.16016,1.83936l-3.48877.001-.02734.001c-.166,0-.91406-.105-1.11084-1.84131a9.90624,9.90624,0,0,0-1.57617-3.59766c-.03662-.06543-2.0293-3.91553.96387-6.46A5.10109,5.10109,0,0,1,26.77,37.23627a5.01708,5.01708,0,0,1,3.49707,1.30713h.00049C33.26025,41.08783,31.26758,44.93793,31.24707,44.9765Z"></path><polygon class="a" points="23.632 42.431 23.633 42.43 23.548 42.416 23.632 42.431"></polygon><path d="M78.748,44.12012A15.81945,15.81945,0,0,0,62.94873,29.17676h-.07422c-.07861.00049-.15625.00391-.23389.00781l-.28125.00977c-.15234.00391-.30469.0083-.45459.01807-.15332.01025-.30469.02588-.45557.0415l-.272.02734c-.08057.00781-.16064.01514-.24023.02539-.2749.03516-.5459.08057-.85742.13574l-.06934.01172a15.765,15.765,0,0,0-9.94873,6.36572l-.02637.03418h-.00049c-.06049.08527-4.04468,6.55273-5.041,8.62793-.99744-2.078-4.991-8.55933-5.04156-8.62793l-.20166.14746-.20215.14746h.00049C40.835,37.90625,44.27686,44.15527,44.71631,45c-.43945.84473-3.88135,7.09375-5.16748,8.85107l-.04248.05518a15.25269,15.25269,0,0,1-9.62207,6.14844l.04639.24561-.15332-.228c-.26172.04736-.52441.09082-.79053.125-.07324.00928-.14746.01611-.22217.02344l-.27832.02783c-.145.01514-.28955.03076-.43652.04-.144.00977-.28955.01367-.43506.01758l-.292.00977c-.07031.00342-.14062.00684-.21191.00732l.001.25-.07324-.25a15.32,15.32,0,0,1-15.30029-14.4707l-.24951.01367.24707-.09912c-.0127-.25684-.02-.51221-.01953-.76758-.00049-.25439.00684-.50977.02-.78125h-.25l.252-.0708a15.32122,15.32122,0,0,1,15.30566-14.4707l.00537.00049.06152-.00049c.07129.00049.1416.00391.21191.00732l.292.00977c.14551.00391.291.00781.43555.01758.14648.00928.291.0249.436.04l.27832.02783c.07471.00732.14893.01416.22217.02344.26611.03418.52881.07764.7915.125l.106.01758a15.28944,15.28944,0,0,1,9.6499,6.18457l.21631-.12842.16211-.19873a15.74756,15.74756,0,0,0-9.93555-6.34863l-.11084-.01855c-.27051-.04834-.541-.09375-.81641-.12891-.07861-.00977-.15869-.01758-.23828-.0249l-.27344-.02783c-.15088-.01562-.30225-.03125-.45508-.0415-.15039-.00977-.30273-.01416-.45508-.01807l-.28125-.00977c-.07764-.00391-.15527-.00732-.23389-.00781h-.07422A15.819,15.819,0,0,0,11.23926,44.1167l-.00244.09033c-.01367.26611-.021.53027-.02051.79248-.00049.26318.00684.52734.02051.81787l.00244.0625A15.81945,15.81945,0,0,0,27.03857,60.82324h.07422c.07861-.00049.15625-.00391.23389-.00781l.28125-.00977c.15234-.00391.30469-.0083.45459-.01807.15332-.01025.30469-.02588.45557-.0415l.27344-.02783c.07959-.00732.15967-.01514.23877-.0249.2749-.03516.54541-.08057.85742-.13574l.06934-.01172a15.74756,15.74756,0,0,0,9.93555-6.34863l-.20312-.14551.24268.09424c.05054-.0686,4.04395-6.5498,5.0415-8.62787.99756,2.07806,4.991,8.55927,5.0415,8.62787l.20166-.14746-.16211.19873a15.74756,15.74756,0,0,0,9.93555,6.34863l.11084.01855c.27.04834.541.09375.81641.12891.0791.01025.15918.01758.23975.02539l.272.02734c.15088.01563.30225.03125.45508.0415.15039.00977.30273.01416.45508.01807l.28125.00977c.07764.00391.15527.00732.23389.00781h.07422A15.81945,15.81945,0,0,0,78.748,45.87988l-.24951-.01367.252-.07373c.01367-.26562.021-.52979.02051-.792.00049-.26318-.00684-.52734-.02-.78223C78.751,44.21387,78.74854,44.12451,78.748,44.12012Zm-.499,1.73242a15.32122,15.32122,0,0,1-15.30566,14.4707l-.00537-.00049-.06152.00049c-.07129-.00049-.1416-.00391-.21191-.00732l-.292-.00977c-.14551-.00391-.291-.00781-.43555-.01758-.14648-.00928-.291-.0249-.436-.04l-.27734-.02783c-.07471-.00684-.14941-.01416-.22314-.02344-.26611-.03418-.5293-.07764-.7915-.125l-.106-.01758A15.25269,15.25269,0,0,1,50.481,53.90625l-.04248-.05518C49.15234,52.09375,45.71045,45.84473,45.271,45c.43945-.84473,3.88135-7.09375,5.16748-8.85107l.04248-.05518A15.25269,15.25269,0,0,1,60.103,29.94531l-.04639-.24561.15332.228c.26123-.04736.52441-.09082.79053-.125.07373-.00928.14844-.0166.22314-.02344l.27734-.02783c.145-.01514.28955-.03076.43652-.04.144-.00977.28955-.01367.43506-.01758l.292-.00977c.07031-.00342.14063-.00684.21191-.00732l-.001-.25.07324.25A15.32,15.32,0,0,1,78.249,44.14746l.24951-.01367-.24707.09863c.0127.25732.02.5127.01953.76807.00049.25439-.00684.50977-.02.78125h.25Z"></path><path d="M58.12354,40.214a1.87042,1.87042,0,0,1,.89014.64355.2503.2503,0,0,0,.42969-.25684,2.33515,2.33515,0,0,0-1.21777-.87354,2.042,2.042,0,0,0-1.4585.439,1.66792,1.66792,0,0,0-.49756,1.31494c.00342.26465.01709.51221.02979.74365.06787,1.2251.09863,1.78418-1.42041,2.146a.25.25,0,0,0-.01758.48145l.10254.03271c1.09717.34668,1.35791.42871,1.35449,1.27393-.00439,1.02344-.00049,1.65674.00391,1.65723a1.32451,1.32451,0,0,0,.2583.99316,2.08762,2.08762,0,0,0,1.60449.67041l.01465.00049a.24246.24246,0,0,0,.08545-.01514,2.26308,2.26308,0,0,0,1.1709-1.16943.25.25,0,0,0-.45508-.207,1.79862,1.79862,0,0,1-.84375.88818,1.61861,1.61861,0,0,1-1.17676-.46777.85488.85488,0,0,1-.16211-.6499c0-.00049-.00439-.64014,0-1.69824a1.38881,1.38881,0,0,0-1.08105-1.54492c1.1665-.51611,1.11914-1.374,1.06152-2.41895-.0127-.22461-.02588-.46533-.0293-.72266a1.1929,1.1929,0,0,1,.333-.937A1.596,1.596,0,0,1,58.12354,40.214Z"></path><path d="M71.62793,44.36841c-1.51855-.36182-1.48779-.9209-1.42041-2.145.0127-.23145.02637-.47949.02979-.74463a1.66657,1.66657,0,0,0-.49756-1.31494,2.0258,2.0258,0,0,0-1.51025-.42773,2.36408,2.36408,0,0,0-1.166.8623.2503.2503,0,1,0,.42969.25684,1.93509,1.93509,0,0,1,.8418-.6333,1.54943,1.54943,0,0,1,1.06934.313,1.1929,1.1929,0,0,1,.333.937c-.00342.25781-.0166.499-.0293.72363-.05713,1.04443-.10449,1.90186,1.06152,2.418a1.38881,1.38881,0,0,0-1.08105,1.54492c.00488,1.05811,0,1.69727.00439,1.74561a.81592.81592,0,0,1-.1665.60254,1.61825,1.61825,0,0,1-1.17627.46777,1.8009,1.8009,0,0,1-.84424-.88818.25.25,0,1,0-.45508.207,2.26313,2.26313,0,0,0,1.17139,1.16943.24246.24246,0,0,0,.08545.01514l.01465-.00049a2.08727,2.08727,0,0,0,1.604-.67041,1.28594,1.28594,0,0,0,.26221-.94727c0-.02094.00488-.65845,0-1.70312-.00342-.84521.25732-.92725,1.35449-1.27393l.10254-.03271a.25.25,0,0,0-.01758-.48145Z"></path><path d="M65.47266,38.64282,60.57324,50.36548a.24974.24974,0,1,0,.46094.19238l4.89941-11.72266a.24974.24974,0,1,0-.46094-.19238Z"></path><path d="M28.353,41.829l-.08936.00049-.09375.00244-.09229.00342a3.819,3.819,0,0,0-.97412.15234l-.01172.00391a2.63715,2.63715,0,0,0-.52533.21954c-.04077.01935-.34064.15247-.46.19208a3.371,3.371,0,0,1-.85937.12988l-.08252.00293-.07275.002.00635.25-.09619-.24951a3.03593,3.03593,0,0,1-1.2124-.17969.24035.24035,0,0,0-.20312-.16016.27287.27287,0,0,0-.29053.23486.422.422,0,0,0,.00879.07471c.10742.47852,1.22266.53027,1.7041.53027l.08936-.00049.09424-.00244.0918-.00342a3.77737,3.77737,0,0,0,.98438-.15576c.10736-.03583.19141-.06714.26611-.09674v5.36041h-.57812a.47407.47407,0,0,0-.46533.481.24445.24445,0,0,0,.23291.25977.22792.22792,0,0,0,.23242-.24072h1.62354a.27908.27908,0,0,0,.25586.22266.2433.2433,0,0,0,.24219-.2417.47407.47407,0,0,0-.46533-.481h-.57812V42.6015c0-.0166-.01453-.02686-.01758-.04254.08466-.03607.17291-.07263.22656-.09125l.01221-.00342a3.36227,3.36227,0,0,1,.8584-.12988l.06543-.00244.09082-.00244-.00684-.25.09619.24951a3.076,3.076,0,0,1,1.21045.17773.24943.24943,0,0,0,.18311.1875.25976.25976,0,0,0,.06055.00732.25.25,0,0,0,.24268-.18945.42173.42173,0,0,0,.00928-.07861l-.00781-.07422C29.9502,41.8808,28.83447,41.829,28.353,41.829Zm-4.72119.60156-.084-.01465.08545.01416Z"></path><path d="M30.26758,38.5434h-.00049A5.01708,5.01708,0,0,0,26.77,37.23627a5.10109,5.10109,0,0,0-3.51465,1.30713c-2.99316,2.54443-1.00049,6.39453-.96387,6.46A9.90624,9.90624,0,0,1,23.86768,48.601c.19678,1.73633.94482,1.84131,1.11084,1.84131l.02734-.001,3.48877-.001c.09619.0083.94824.03467,1.16016-1.83936a10.00929,10.00929,0,0,1,1.59229-3.62451C31.26758,44.93793,33.26025,41.08783,30.26758,38.5434Zm.5542,6.17188a10.243,10.243,0,0,0-1.66406,3.8291c-.12842,1.13379-.49951,1.39307-.64062,1.397l-3.52051.00049c-.13232-.00439-.50342-.26367-.63184-1.39746a10.14339,10.14339,0,0,0-1.64795-3.80225c-.01855-.03516-1.82812-3.53076.86279-5.81787a4.60414,4.60414,0,0,1,3.0332-1.19092c.05225,0,.105.001.15723.00293a4.58961,4.58961,0,0,1,3.17334,1.188C32.62793,41.20648,30.88086,44.59906,30.82178,44.71527Z"></path><path d="M28.521,51.30609a.24986.24986,0,0,0-.25.25v.54932a1.53517,1.53517,0,0,1-.40039,1.04l-.78564.8418a.41129.41129,0,0,1-.33154.12109.36616.36616,0,0,1-.26953-.12158l-.78516-.8418a1.533,1.533,0,0,1-.40088-1.03955V51.5141a.25.25,0,0,0-.5,0v.59131a2.01131,2.01131,0,0,0,.53564,1.38086l.78467.84082a.9107.9107,0,0,0,.69775.28125.8706.8706,0,0,0,.63477-.28076l.78516-.84082a2.01208,2.01208,0,0,0,.53516-1.38135v-.54932A.24986.24986,0,0,0,28.521,51.30609Z"></path></svg>