<svg xmlns="http://www.w3.org/2000/svg" xmlns:xlink="http://www.w3.org/1999/xlink" version="1.1" x="0px" y="0px" viewBox="0 0 450 450" style="enable-background:new 0 0 450 450;" xml:space="preserve"><g><g><path d="M253.3,445.8H80.1c-1.5,0-3-0.7-3.9-1.9s-1.3-2.8-0.9-4.3c0.3-1.3,30.7-128.7,2.4-173.2c-16.7-26-25.2-57.1-24.7-89.7    c0.5-30.5,8.8-61.1,24-88.4C106.1,35.9,155,5,207.7,5.7C261,6.4,353.8,27.2,375.9,158c2.6,15.4-3.3,27-8,36.3    c-5.5,10.9-6.9,14.8-1.7,20l1.9,1.9c15.6,15.7,33.4,33.6,28.8,50.4c-2.8,10.1-13,17.5-31.1,22.8v70.7c0,2.8-2.2,5-5,5H258.3v75.7    C258.3,443.6,256,445.8,253.3,445.8z M86.4,435.8h161.9v-75.7c0-2.8,2.2-5,5-5h102.4v-69.5c0-2.3,1.5-4.3,3.8-4.8    c16.3-4.2,25.9-10,27.7-16.8c3.1-11.2-13.2-27.6-26.2-40.7l-1.9-1.9c-10.7-10.8-5-21.8-0.1-31.6c4.3-8.4,9.1-18,7.1-30.1    C345.2,36,257.8,16.4,207.5,15.7C158.6,15,113,44,85.7,93.2C55.5,147.6,55.6,213.5,86.1,261C113.3,303.8,92.4,408.9,86.4,435.8z"></path></g><g><path d="M245.4,287h-62.9c-2.8,0-5-2.2-5-5c0-40.8-12.1-57.6-22.8-72.4c-8.1-11.2-15.7-21.8-15.7-40c0-41.3,33.6-75,75-75    s75,33.6,75,75c0,18.2-7.6,28.8-15.7,40c-10.7,14.8-22.8,31.6-22.8,72.4C250.4,284.8,248.1,287,245.4,287z M187.4,277h53.1    c1-40.5,14-58.6,24.6-73.3c7.7-10.7,13.8-19.2,13.8-34.1c0-35.8-29.1-65-65-65c-35.8,0-65,29.1-65,65c0,14.9,6.1,23.4,13.8,34.1    C173.3,218.4,186.4,236.5,187.4,277z"></path></g><g><path d="M229.3,319.1h-30.8c-11.6,0-21.1-9.4-21.1-21.1V282c0-2.8,2.2-5,5-5s5,2.2,5,5v16.1c0,6.1,5,11.1,11.1,11.1h30.8    c6.1,0,11.1-5,11.1-11.1V282c0-2.8,2.2-5,5-5s5,2.2,5,5v16.1C250.4,309.7,240.9,319.1,229.3,319.1z"></path></g><g><path d="M245.4,303.1h-62.9c-2.8,0-5-2.2-5-5s2.2-5,5-5h62.9c2.8,0,5,2.2,5,5S248.1,303.1,245.4,303.1z"></path></g><g><path d="M213.9,335.9c-12,0-21.7-9.8-21.7-21.7c0-2.8,2.2-5,5-5s5,2.2,5,5c0,6.5,5.3,11.7,11.7,11.7s11.7-5.3,11.7-11.7    c0-2.8,2.2-5,5-5s5,2.2,5,5C235.6,326.1,225.9,335.9,213.9,335.9z"></path></g><g><path d="M213.9,84.3c-2.8,0-5-2.2-5-5V63.6c0-2.8,2.2-5,5-5s5,2.2,5,5v15.7C218.9,82.1,216.6,84.3,213.9,84.3z"></path></g><g><path d="M165.2,97.4c-1.7,0-3.4-0.9-4.3-2.5L153,81.3c-1.4-2.4-0.6-5.4,1.8-6.8c2.4-1.4,5.4-0.6,6.8,1.8l7.9,13.6    c1.4,2.4,0.6,5.4-1.8,6.8C166.9,97.2,166,97.4,165.2,97.4z"></path></g><g><path d="M129.5,133c-0.8,0-1.7-0.2-2.5-0.7l-13.6-7.9c-2.4-1.4-3.2-4.4-1.8-6.8c1.4-2.4,4.4-3.2,6.8-1.8l13.6,7.9    c2.4,1.4,3.2,4.4,1.8,6.8C132.9,132.1,131.3,133,129.5,133z"></path></g><g><path d="M116.5,181.7h-15.7c-2.8,0-5-2.2-5-5s2.2-5,5-5h15.7c2.8,0,5,2.2,5,5S119.3,181.7,116.5,181.7z"></path></g><g><path d="M262.6,97.4c-0.8,0-1.7-0.2-2.5-0.7c-2.4-1.4-3.2-4.4-1.8-6.8l7.9-13.6c1.4-2.4,4.4-3.2,6.8-1.8c2.4,1.4,3.2,4.4,1.8,6.8    l-7.9,13.6C266,96.5,264.3,97.4,262.6,97.4z"></path></g><g><path d="M298.2,133c-1.7,0-3.4-0.9-4.3-2.5c-1.4-2.4-0.6-5.4,1.8-6.8l13.6-7.9c2.4-1.4,5.5-0.6,6.8,1.8c1.4,2.4,0.6,5.4-1.8,6.8    l-13.6,7.9C299.9,132.8,299.1,133,298.2,133z"></path></g><g><path d="M327,181.7h-15.7c-2.8,0-5-2.2-5-5s2.2-5,5-5H327c2.8,0,5,2.2,5,5S329.8,181.7,327,181.7z"></path></g><g><g><path d="M197.6,209.3c-2,0-4-1.3-4.7-3.3c-0.5-1.3-11.6-32.8-0.8-55.4c4.4-9.2,11.8-15.7,21.9-19.2c1.9-0.7,4-0.1,5.3,1.3     c1.4,1.5,1.7,3.6,0.9,5.4c-3.7,8.3,0.7,14.6,8.3,24.2c8.5,10.8,20.2,25.6,3.3,45.3c-1.8,2.1-5,2.3-7.1,0.5     c-2.1-1.8-2.3-5-0.5-7.1c11-12.9,6.1-20.4-3.5-32.6c-5.4-6.8-11.2-14.3-11.8-23.2c-3.3,2.5-5.9,5.7-7.7,9.7     c-9,18.9,1.1,47.4,1.2,47.7c0.9,2.6-0.4,5.5-3,6.4C198.7,209.2,198.2,209.3,197.6,209.3z"></path></g><g><path d="M229.8,287c-2.6,0-4.8-2-5-4.6c-0.9-11.7-2.4-22.5-4.5-31c-0.6-2.7,1-5.4,3.7-6c2.7-0.7,5.4,1,6,3.7     c2.2,9.1,3.8,20.4,4.7,32.6c0.2,2.8-1.9,5.2-4.6,5.4C230,287,229.9,287,229.8,287z M195.7,287c-0.1,0-0.2,0-0.4,0     c-2.8-0.2-4.8-2.6-4.6-5.4c0.9-12.3,2.5-23.6,4.7-32.6c0.6-2.7,3.3-4.3,6-3.7c2.7,0.6,4.3,3.3,3.7,6c-2.1,8.6-3.6,19.3-4.5,31     C200.5,285,198.3,287,195.7,287z"></path></g><g><path d="M225.2,255.2h-24.9c-2.8,0-5-2.2-5-5v-19.1c0-2.8,2.2-5,5-5h24.9c2.8,0,5,2.2,5,5v19.1     C230.2,252.9,228,255.2,225.2,255.2z M205.3,245.2h14.9v-9.1h-14.9V245.2z"></path></g><g><path d="M200.3,236.1c-2.5,0-4.7-1.9-5-4.5l-2.7-26.8c-0.1-1.4,0.3-2.8,1.3-3.9c0.9-1,2.3-1.6,3.7-1.6h30.3     c1.4,0,2.8,0.6,3.7,1.6c0.9,1,1.4,2.4,1.3,3.9l-2.7,26.8c-0.3,2.7-2.7,4.8-5.5,4.5c-2.7-0.3-4.8-2.7-4.5-5.5l2.2-21.3h-19.2     l2.2,21.3c0.3,2.7-1.7,5.2-4.5,5.5C200.6,236.1,200.5,236.1,200.3,236.1z"></path></g></g></g></svg>